<svg width="122" height="71" viewBox="0 0 122 71" fill="none" xmlns="http://www.w3.org/2000/svg">
<g clip-path="url(#clip0_748_132675)">
<path d="M48.1053 32.0279V42.8032H44.6756V29.2589L51.7564 29.2656C54.7635 29.2656 55.7884 31.3864 55.7884 33.3135V42.8024H52.3637V33.3285C52.3637 32.5216 51.946 32.0246 50.9386 32.0246L48.1053 32.0279ZM71.4276 31.8659C70.9249 31.8423 70.426 31.9636 69.9902 32.2154C69.5544 32.4671 69.2001 32.8387 68.9693 33.2859C68.7548 33.7461 68.6428 34.2474 68.641 34.7552H73.9176C73.8499 33.2859 73.1834 31.8659 71.4276 31.8659ZM68.641 37.0873C68.6114 37.4942 68.6696 37.9027 68.8117 38.2851C68.9538 38.6676 69.1764 39.015 69.4646 39.3038C69.7527 39.5926 70.0995 39.8161 70.4816 39.9592C70.8637 40.1022 71.272 40.1614 71.679 40.1328C72.2668 40.1719 72.8556 40.0758 73.4005 39.852C73.9454 39.6281 74.4317 39.2824 74.8222 38.8414L76.9405 40.8645C76.2693 41.587 75.4483 42.1539 74.535 42.5258C73.6216 42.8976 72.638 43.0653 71.6531 43.0171C68.3696 43.0171 65.228 41.227 65.228 36.009C65.228 31.551 67.9711 29.0267 71.5763 29.0267C75.2298 29.0267 77.3398 31.9812 77.3398 35.8519V37.0873H68.641ZM62.3329 42.7824C61.8095 42.8241 61.2833 42.7537 60.7892 42.576C60.2952 42.3982 59.8448 42.1172 59.4679 41.7516C59.0911 41.386 58.7966 40.9443 58.604 40.4558C58.4114 39.9674 58.3252 39.4435 58.351 38.9191V25.5694H61.7758V29.2598H64.3576V32.0279H61.7758V38.7044C61.7503 38.868 61.7633 39.0352 61.8136 39.1929C61.8639 39.3506 61.9502 39.4944 62.0656 39.613C62.1811 39.7316 62.3225 39.8218 62.4788 39.8763C62.6351 39.9309 62.8019 39.9483 62.966 39.9273H64.3593V42.7849H62.3329V42.7824ZM41.6234 27.3879H38.1703V24.1068H41.6234V27.3879ZM41.6318 42.9452C39.0424 42.6946 38.1662 41.1285 38.1662 39.3184V29.2598H41.6285V42.9444L41.6318 42.9452ZM82.7909 42.6562C80.2099 42.4056 79.3345 40.8411 79.3345 39.0336V23.6391H82.7917L82.7909 42.6562ZM94.8734 25.8668C91.7419 10.5943 62.099 9.62703 42.9917 21.2593V22.544C62.0798 12.7335 89.15 12.792 91.6166 26.8566C92.4419 31.5076 89.8208 36.3564 85.1406 39.1438V42.7899C90.7747 40.7292 96.5524 34.0452 94.8743 25.8643L94.8734 25.8668ZM60.1419 52.5829C46.9551 53.8024 33.2137 51.8879 31.2875 41.5837C30.3495 36.5026 32.6641 31.1191 35.7338 27.7746V25.9863C30.2075 30.831 27.2079 36.967 28.9345 44.2166C31.1388 53.5125 42.9323 58.7807 60.9338 57.0308C68.0563 56.3358 77.3782 54.0455 83.8584 50.4888V45.4352C77.9779 48.9368 68.2459 51.8328 60.1419 52.5829Z" fill="#7C90AA"/>
<path d="M86.7872 24.6633C86.7872 24.4962 86.6894 24.4428 86.4656 24.4428H86.2492V24.9172C86.281 24.9172 86.4372 24.9231 86.4656 24.9231C86.6894 24.9231 86.7872 24.8479 86.7872 24.6917V24.6641V24.6633ZM87.1213 25.8394H86.8657C86.8545 25.8391 86.8436 25.8358 86.8342 25.8298C86.8247 25.8237 86.8171 25.8152 86.8122 25.8052L86.4631 25.2138C86.4507 25.1993 86.4335 25.1898 86.4146 25.187H86.2576V25.7717C86.2579 25.7802 86.2566 25.7886 86.2536 25.7965C86.2506 25.8044 86.246 25.8116 86.2402 25.8177C86.2343 25.8237 86.2273 25.8286 86.2195 25.8319C86.2118 25.8352 86.2034 25.8369 86.1949 25.8369H85.9703C85.9545 25.8345 85.9401 25.8267 85.9296 25.8148C85.919 25.8029 85.913 25.7876 85.9126 25.7717V24.2891C85.9126 24.2056 85.946 24.1671 86.0187 24.1563C86.0914 24.1454 86.3228 24.1379 86.4422 24.1379C86.8674 24.1379 87.1246 24.2632 87.1246 24.6633V24.6909C87.1326 24.7897 87.1054 24.8881 87.048 24.9689C86.9906 25.0497 86.9065 25.1077 86.8106 25.1327L87.1723 25.745C87.1773 25.7594 87.1809 25.7742 87.1831 25.7893C87.1834 25.7964 87.1821 25.8035 87.1794 25.8101C87.1767 25.8167 87.1726 25.8226 87.1673 25.8275C87.1621 25.8323 87.1558 25.836 87.1491 25.8382C87.1423 25.8404 87.1351 25.8411 87.128 25.8402L87.1213 25.8394ZM86.5207 23.8714C86.2948 23.8711 86.0738 23.9378 85.8858 24.063C85.6977 24.1882 85.551 24.3663 85.4642 24.5749C85.3773 24.7835 85.3542 25.0131 85.3979 25.2348C85.4415 25.4565 85.5499 25.6602 85.7093 25.8203C85.8687 25.9805 86.072 26.0897 86.2935 26.1343C86.5149 26.1789 86.7447 26.1569 86.9536 26.0709C87.1626 25.985 87.3414 25.8391 87.4674 25.6516C87.5935 25.4641 87.6611 25.2434 87.6617 25.0175C87.6615 24.7145 87.5414 24.4238 87.3276 24.2091C87.1138 23.9944 86.8237 23.873 86.5207 23.8714ZM86.5207 26.3924C86.249 26.3915 85.9836 26.3102 85.758 26.1586C85.5325 26.007 85.3569 25.792 85.2535 25.5407C85.15 25.2894 85.1234 25.0131 85.1769 24.7467C85.2305 24.4803 85.3617 24.2357 85.5542 24.0438C85.7466 23.8519 85.9916 23.7214 86.2582 23.6687C86.5248 23.616 86.801 23.6435 87.052 23.7476C87.303 23.8518 87.5175 24.028 87.6684 24.2541C87.8193 24.4801 87.8998 24.7457 87.8998 25.0175C87.9 25.1984 87.8645 25.3777 87.7952 25.5448C87.7259 25.712 87.6243 25.8639 87.4961 25.9916C87.368 26.1194 87.2158 26.2206 87.0484 26.2894C86.881 26.3581 86.7017 26.3931 86.5207 26.3924Z" fill="#7C90AA"/>
</g>
<defs>
<clipPath id="clip0_748_132675">
<rect width="121.118" height="71" fill="white" transform="translate(0.882385)"/>
</clipPath>
</defs>
</svg>
