<svg width="122" height="71" viewBox="0 0 122 71" fill="none" xmlns="http://www.w3.org/2000/svg">
<g clip-path="url(#clip0_748_132618)">
<path d="M53.8271 45.2933H48.0911V45.8922C49.8837 45.8922 50.1794 46.2647 50.1794 48.5217V52.5854C50.1794 54.8574 49.8812 55.2742 48.0911 55.2742C46.7171 55.0954 45.7607 54.3186 44.506 52.9437L43.0125 51.3266C44.9838 50.954 46.0605 49.7128 46.0605 48.3396C46.0605 46.6063 44.567 45.2323 41.7588 45.2323H36.1464V45.8278C37.939 45.8278 38.2347 46.2004 38.2347 48.4573V52.5211C38.2347 54.7931 37.9365 55.2099 36.1464 55.2099V55.8054H42.4805V55.2099C40.6879 55.2099 40.3922 54.7922 40.3922 52.5211V51.3859H40.9301L44.4559 55.8054H53.7711C58.3719 55.8054 60.3432 53.3563 60.3432 50.4879C60.4025 47.6797 58.4312 45.2899 53.8279 45.2899L53.8271 45.2933ZM40.444 50.4913V46.2614H41.7596C42.0434 46.2459 42.3272 46.2915 42.5918 46.395C42.8565 46.4986 43.0958 46.6577 43.2938 46.8616C43.4917 47.0656 43.6436 47.3096 43.7391 47.5772C43.8347 47.8449 43.8718 48.1299 43.8478 48.4131C43.8698 48.6929 43.8309 48.9742 43.7337 49.2375C43.6366 49.5008 43.4835 49.74 43.285 49.9385C43.0865 50.1369 42.8474 50.29 42.584 50.3872C42.3207 50.4844 42.0394 50.5233 41.7596 50.5013L40.444 50.4913ZM53.9474 54.9133H53.7076C52.5733 54.9133 52.3921 54.6151 52.3921 53.1801V46.2505H53.944C57.2894 46.2505 57.8866 48.6996 57.8866 50.5523C57.8866 52.5236 57.2284 54.9133 53.944 54.9133H53.9474ZM18.3363 51.6991L20.5465 45.1838C21.2047 43.2718 20.919 42.7347 18.8759 42.7347V42.0765H24.9092V42.7347C22.8778 42.7347 22.4033 43.2125 21.6232 45.543L17.9738 56.4661H17.496L14.2099 46.4886L10.9205 56.4661H10.5029L6.97796 45.533C6.20114 43.2025 5.73671 42.7247 3.87067 42.7247V42.0665H10.9205V42.7247C9.00856 42.7247 8.53077 43.1424 9.18731 45.1738L11.339 51.6891L14.5666 42.0673H15.1622L18.3363 51.6991ZM29.2093 56.3609C25.6835 56.3609 22.816 53.7907 22.816 50.6249C22.816 47.5176 25.671 44.889 29.2093 44.889C32.7476 44.889 35.6026 47.4592 35.6026 50.6249C35.6026 53.7907 32.7468 56.3609 29.2093 56.3609ZM29.2093 45.8454C26.2858 45.8454 25.2667 48.4749 25.2667 50.5656C25.2667 52.6564 26.2824 55.2859 29.2093 55.2859C32.1963 55.2859 33.2129 52.6564 33.2129 50.5656C33.2129 48.5342 32.1972 45.8454 29.2093 45.8454ZM68.2869 55.2842V55.9424H60.9363V55.2842C63.088 55.2842 63.4422 54.7463 63.4422 51.5204V46.3808C63.4422 43.1532 63.0696 42.6763 60.9363 42.6763V42.0181H67.5685C70.8546 42.0181 72.7081 43.6887 72.7081 45.9607C72.7081 48.1708 70.8554 49.9032 67.5685 49.9032H65.7768V51.5738C65.7768 54.7396 66.1493 55.2784 68.2827 55.2784L68.2869 55.2842ZM67.5693 43.215H65.7768V48.7723H67.5693C67.9304 48.7927 68.2915 48.7346 68.6279 48.602C68.9643 48.4694 69.268 48.2654 69.5179 48.0041C69.7679 47.7428 69.9582 47.4304 70.0757 47.0884C70.1933 46.7464 70.2353 46.3831 70.1988 46.0233C70.2366 45.6605 70.1959 45.2938 70.0796 44.948C69.9633 44.6023 69.7741 44.2856 69.5247 44.0193C69.2754 43.753 68.9718 43.5434 68.6344 43.4047C68.2971 43.2659 67.9339 43.2012 67.5693 43.215ZM94.6329 52.9529L94.4541 53.5485C94.1559 54.6235 93.7959 54.9827 91.5306 54.9827H91.1129C89.4424 54.9827 89.1416 54.6101 89.1416 52.3532V50.8597C91.6475 50.8597 91.8305 51.0994 91.8305 52.7716H92.426V47.9921H91.8305C91.8305 49.6627 91.6517 49.9041 89.1416 49.9041V46.3232H90.8749C93.1469 46.3232 93.5044 46.6957 93.7984 47.7574L93.9772 48.3529H94.5151L94.2754 45.3659H84.895V45.9615C86.6875 45.9615 86.9832 46.334 86.9832 48.591V52.658C86.9832 54.7463 86.7435 55.2875 85.3127 55.3469C83.9971 55.1681 83.0407 54.3913 81.7869 53.0164L80.2934 51.4026C82.2647 51.0301 83.3414 49.7888 83.3414 48.4156C83.3414 46.6823 81.8479 45.3083 79.0396 45.3083H73.4248V45.9039C75.2173 45.9039 75.513 46.2764 75.513 48.5334V52.5971C75.513 54.8691 75.2148 55.2859 73.4248 55.2859V55.8814H79.7588V55.2859C77.9662 55.2859 77.6705 54.8682 77.6705 52.5971V51.4594H78.2085L81.7343 55.8789H94.8793L95.058 52.8919H94.6404L94.6329 52.9529ZM77.724 50.5038V46.2614H79.0396C79.3234 46.2459 79.6072 46.2915 79.8718 46.395C80.1365 46.4986 80.3758 46.6577 80.5738 46.8616C80.7717 47.0656 80.9236 47.3096 81.0191 47.5772C81.1147 47.8449 81.1518 48.1299 81.1278 48.4131C81.1498 48.6929 81.1109 48.9742 81.0137 49.2375C80.9166 49.5008 80.7635 49.74 80.565 49.9385C80.3665 50.1369 80.1274 50.29 79.864 50.3872C79.6007 50.4844 79.3194 50.5233 79.0396 50.5013L77.724 50.5038Z" fill="#7C90AA"/>
<path d="M101.149 56.3588C100.104 56.3296 99.0985 55.9511 98.2937 55.2838C98.0437 55.6022 97.8607 55.9679 97.7557 56.3588H97.156V51.9409H97.8142C97.8642 52.8536 98.2653 53.7115 98.9335 54.3351C99.6018 54.9587 100.485 55.2995 101.399 55.2863C101.624 55.3129 101.852 55.2932 102.069 55.2286C102.286 55.164 102.487 55.0558 102.661 54.9105C102.835 54.7653 102.977 54.5861 103.079 54.384C103.181 54.1819 103.24 53.9611 103.254 53.7351C103.254 52.8998 102.536 52.2416 101.222 51.6469L99.4297 50.8116C98.808 50.5686 98.2692 50.1522 97.8774 49.6119C97.4856 49.0715 97.2572 48.43 97.2195 47.7636C97.2195 46.2116 98.6537 44.9086 100.625 44.9086C101.533 44.8803 102.421 45.1764 103.131 45.7439C103.34 45.5065 103.484 45.2186 103.549 44.9086H104.144V48.6724H103.486C103.254 47.1747 102.418 45.9176 100.743 45.9176C99.8465 45.9176 99.0095 46.4556 99.0095 47.2332C99.0095 48.0685 99.6677 48.4862 101.22 49.2045L102.953 50.0398C103.549 50.2577 104.069 50.643 104.45 51.1496C104.832 51.6561 105.059 52.2622 105.105 52.8948C105.074 53.3816 104.948 53.8575 104.734 54.2954C104.519 54.7332 104.22 55.1243 103.853 55.4462C103.487 55.768 103.061 56.0144 102.599 56.171C102.137 56.3276 101.649 56.3914 101.162 56.3588H101.149Z" fill="#7C90AA"/>
<path d="M111.009 56.3588C109.964 56.3296 108.959 55.9511 108.154 55.2838C107.904 55.6022 107.721 55.9679 107.616 56.3588H107.016V51.9409H107.675C107.725 52.8536 108.126 53.7115 108.794 54.3351C109.462 54.9587 110.346 55.2995 111.26 55.2863C111.485 55.3129 111.712 55.2932 111.929 55.2286C112.146 55.164 112.348 55.0558 112.521 54.9105C112.695 54.7653 112.837 54.5861 112.939 54.384C113.041 54.1819 113.1 53.9611 113.114 53.7351C113.114 52.8998 112.397 52.2416 111.083 51.6469L109.29 50.8116C108.668 50.5686 108.13 50.1522 107.738 49.6119C107.346 49.0715 107.118 48.43 107.08 47.7636C107.08 46.2116 108.514 44.9086 110.485 44.9086C111.393 44.8803 112.282 45.1764 112.991 45.7439C113.201 45.5065 113.345 45.2186 113.409 44.9086H114.004V48.6724H113.346C113.114 47.1747 112.279 45.9176 110.603 45.9176C109.707 45.9176 108.87 46.4556 108.87 47.2332C108.87 48.0685 109.528 48.4862 111.08 49.2045L112.813 50.0398C113.409 50.2577 113.929 50.643 114.311 51.1496C114.693 51.6561 114.92 52.2622 114.965 52.8948C114.935 53.3816 114.809 53.8575 114.594 54.2954C114.379 54.7332 114.08 55.1243 113.714 55.4462C113.347 55.768 112.921 56.0144 112.459 56.171C111.997 56.3276 111.509 56.3914 111.022 56.3588H111.009Z" fill="#7C90AA"/>
<path d="M45.4792 23.273C45.4694 25.675 46.1394 28.0308 47.4117 30.0682C48.684 32.1055 50.5068 33.7414 52.6694 34.7867L46.6152 18.0809C45.8825 19.7138 45.4957 21.4808 45.4792 23.2705V23.273ZM66.9412 22.6232C66.9209 21.373 66.5457 20.1543 65.8595 19.1091C65.2113 18.0274 64.6166 17.1629 64.6166 16.082C64.6049 15.4949 64.8254 14.9269 65.2302 14.5014C65.635 14.076 66.1913 13.8275 66.7783 13.81H66.9404C64.5883 11.6375 61.4985 10.4402 58.2968 10.4605C56.1764 10.4796 54.0928 11.0165 52.2273 12.0247C50.3619 13.0328 48.771 14.4816 47.5933 16.2449H48.4035C49.755 16.2449 51.809 16.0828 51.809 16.0828C51.9482 16.0778 52.084 16.1262 52.1885 16.2183C52.2929 16.3104 52.3581 16.439 52.3705 16.5777C52.3829 16.7164 52.3417 16.8546 52.2552 16.9638C52.1688 17.073 52.0438 17.1448 51.9059 17.1645C51.4219 17.2263 50.9346 17.2586 50.4467 17.2614L55.1068 31.1006L57.9175 22.7226L55.9178 17.2631L54.5663 17.1662C54.4301 17.1495 54.3053 17.0818 54.217 16.9768C54.1286 16.8717 54.0834 16.7372 54.0902 16.6001C54.0971 16.463 54.1556 16.3337 54.254 16.238C54.3525 16.1424 54.4834 16.0875 54.6206 16.0845C54.6206 16.0845 56.7289 16.2466 57.9718 16.2466C59.3233 16.2466 61.3773 16.0845 61.3773 16.0845C61.5165 16.0794 61.6523 16.1279 61.7568 16.22C61.8612 16.3121 61.9264 16.4407 61.9388 16.5794C61.9512 16.7181 61.91 16.8563 61.8235 16.9655C61.7371 17.0746 61.6121 17.1465 61.4742 17.1662C60.9902 17.2279 60.5029 17.2603 60.015 17.2631L64.6751 31.0455L65.9723 26.7738C66.483 25.4363 66.8103 24.0359 66.9454 22.6107L66.9412 22.6232ZM58.5047 24.4099L54.6699 35.5444C55.8463 35.89 57.0648 36.0719 58.2909 36.0848C59.7428 36.0759 61.1843 35.8389 62.5626 35.3823C62.5083 35.328 62.5083 35.2854 62.4657 35.2203L58.5047 24.4099ZM69.5306 17.1679L69.6275 18.4651C69.6171 20.0465 69.2861 21.6094 68.6544 23.0592L64.777 34.3566C66.716 33.2281 68.3254 31.611 69.4445 29.6666C70.5637 27.7221 71.1535 25.5182 71.1553 23.2747C71.0983 21.14 70.5431 19.0482 69.534 17.1662L69.5306 17.1679ZM58.2909 8.35303C55.34 8.35303 52.4554 9.22807 50.0018 10.8675C47.5482 12.5069 45.6359 14.8371 44.5066 17.5634C43.3773 20.2897 43.0819 23.2896 43.6576 26.1838C44.2333 29.078 45.6543 31.7365 47.7409 33.8231C49.8275 35.9097 52.486 37.3307 55.3802 37.9064C58.2744 38.4821 61.2743 38.1866 64.0006 37.0574C66.7268 35.9281 69.057 34.0158 70.6965 31.5622C72.3359 29.1086 73.2109 26.224 73.2109 23.273C73.2026 19.3186 71.6279 15.5285 68.8317 12.7323C66.0355 9.93603 62.2454 8.36141 58.2909 8.35303ZM58.2909 37.5432C55.4739 37.5485 52.7185 36.7183 50.3733 35.1577C48.0281 33.597 46.1983 31.376 45.1153 28.7754C44.0324 26.1748 43.7449 23.3115 44.2892 20.5476C44.8335 17.7836 46.1852 15.2431 48.1734 13.2474C50.1616 11.2516 52.6969 9.89026 55.4587 9.3354C58.2206 8.78053 61.085 9.0571 63.6896 10.1301C66.2943 11.2032 68.5223 13.0245 70.0919 15.3637C71.6615 17.703 72.5022 20.4552 72.5076 23.2722C72.5145 27.0498 71.0206 30.6755 68.3545 33.3517C65.6884 36.028 62.0685 37.5357 58.2909 37.5432Z" fill="#7C90AA"/>
</g>
<defs>
<clipPath id="clip0_748_132618">
<rect width="121.118" height="71" fill="white" transform="translate(0.52948)"/>
</clipPath>
</defs>
</svg>
