<svg width="122" height="71" viewBox="0 0 122 71" fill="none" xmlns="http://www.w3.org/2000/svg">
<g clip-path="url(#clip0_855_214212)">
<path d="M6.91757 27.0402V25.5801H15.0583V27.0226H13.5598C13.4813 27.0219 13.4033 27.0368 13.3306 27.0664C13.2578 27.0961 13.1917 27.14 13.1361 27.1955C13.0805 27.2511 13.0365 27.3171 13.0067 27.3898C12.9769 27.4625 12.9619 27.5405 12.9626 27.619V42.9943H17.9902C17.9902 42.9943 18.8389 43.4746 19.0644 39.0684H21.1527V44.4686H6.93595V43.1689H8.49126C8.49126 43.1689 9.1595 42.9709 9.1595 42.5006V27.5622C9.1595 27.5622 9.0885 27.0819 8.35344 27.0819L6.91757 27.0402Z" fill="#7C90AA"/>
<path d="M22.3443 33.1045V31.9735L26.2175 30.5034H27.716V42.6887C27.716 42.6887 27.7444 43.3385 28.5923 43.3385H29.6381V44.4979H22.3159V43.2826H23.4185C23.4185 43.2826 24.1535 43.1991 24.2103 42.7455V33.1045H22.3443Z" fill="#7C90AA"/>
<path d="M37.8661 44.497H30.939V43.2817H32.0131C32.0131 43.2817 32.7473 43.1981 32.7757 42.6886V33.0184H30.8546V31.8315L34.8131 30.4741H36.2289V32.199C36.2289 32.199 39.3111 30.5284 41.1204 30.5284C41.6122 30.4867 42.1073 30.5534 42.5706 30.7238C43.0339 30.8942 43.4543 31.1641 43.802 31.5145C44.1497 31.8649 44.4163 32.2873 44.5831 32.752C44.7499 33.2166 44.8127 33.7122 44.7672 34.2037V42.5725C44.8056 42.7784 44.9198 42.9623 45.0874 43.088C45.2549 43.2136 45.4635 43.2717 45.6719 43.2508H46.7744V44.4945H39.8757V43.194H40.8372C40.9844 43.1822 41.1241 43.1238 41.2359 43.0272C41.3476 42.9306 41.4257 42.8009 41.4586 42.6569V35.3673C41.4285 34.6975 41.1355 34.0666 40.6433 33.6115C40.151 33.1563 39.4992 32.9135 38.8291 32.9357C37.9591 33.0486 37.099 33.2281 36.2564 33.4728V42.6895C36.3038 42.8415 36.3974 42.9749 36.5242 43.0712C36.6511 43.1675 36.8048 43.2218 36.9639 43.2266H37.8969L37.8661 44.497Z" fill="#7C90AA"/>
<path d="M49.5138 32.9906H47.6194V31.8588L51.4617 30.5023H53.0162V39.7189C53.0162 39.7189 52.9035 42.6308 55.6457 42.4044C56.4792 42.3391 57.3036 42.1874 58.1057 41.9517V33.014H56.2396V31.883L60.0277 30.4697H61.583V42.5982C61.583 42.5982 61.5546 43.1637 62.2897 43.2197H63.3922V44.5553H58.1057V43.0284C58.1057 43.0284 55.4202 44.8092 53.2426 44.7825C53.2426 44.7825 49.6233 44.9805 49.5105 40.8566V32.9965L49.5138 32.9906Z" fill="#7C90AA"/>
<path d="M64.3014 32.0008V30.7002H71.059V31.9724C71.059 31.9724 69.5605 31.9155 69.984 32.6506L72.1891 35.8456L74.3659 32.6506C74.3659 32.6506 74.903 32.0007 73.1789 32.0567V30.7595H78.3528V32.0033C77.7006 32.0222 77.0697 32.239 76.5435 32.6247L73.2073 37.0919L77.3629 43.0575C77.83 43.2806 78.3442 43.3872 78.8615 43.3683V44.5277H72.2175V43.481C72.2175 43.481 73.716 43.481 73.2357 42.6616L70.8885 39.1534L68.4286 42.7159C68.4286 42.7159 67.8072 43.3098 69.6724 43.2814V44.4683H64.243V43.3098C64.5713 43.3376 64.9018 43.2966 65.2134 43.1896C65.5251 43.0826 65.811 42.9119 66.053 42.6883L69.7283 37.9096L66.1099 32.623C66.1099 32.623 65.9411 32.0292 64.3014 32.0008Z" fill="#7C90AA"/>
<path d="M78.6105 29.9936H78.314V29.2627H79.7875V29.9936H79.5035V29.5584H79.2019V30.5917H79.4918V30.8756H78.6222V30.5975H78.9004V29.5584H78.6047L78.6105 29.9936Z" fill="#7C90AA"/>
<path d="M79.9398 30.881V30.592H80.0852V29.5587H79.9398V29.2446H80.3742V29.5529H80.5413V29.8669H80.6799V29.993H80.8311V29.8485H80.9881V29.5712H81.1276V29.2513H81.5687V29.5529H81.4217V30.5978H81.567V30.8877H80.837V30.592H81.1327V30.1451H80.9823V30.2838H80.837V30.4508H80.6799V30.2996H80.5413V30.1426H80.3742V30.5736H80.6757V30.8843L79.9398 30.881Z" fill="#7C90AA"/>
<path d="M26.1319 28.3967C27.2856 28.3967 28.2209 27.4618 28.2209 26.3085C28.2209 25.1551 27.2856 24.2202 26.1319 24.2202C24.9781 24.2202 24.0428 25.1551 24.0428 26.3085C24.0428 27.4618 24.9781 28.3967 26.1319 28.3967Z" fill="#7C90AA"/>
<path d="M99.0399 15.9234C99.0399 15.9234 94.4374 16.3359 94.3789 21.5849C94.3205 26.8339 94.9106 28.7217 92.5517 31.7296C90.1929 34.7375 88.7624 36.9537 88.1844 39.102C87.8342 40.4504 87.6567 41.8377 87.6558 43.2308C87.6558 43.2308 87.5955 43.7612 88.1844 43.2308C88.7733 42.7004 90.4295 42.936 91.2547 44.4103C92.08 45.8846 93.6105 48.185 93.6105 48.185L94.3789 49.2467L95.441 48.9518C95.441 48.9518 96.5043 48.2442 95.441 46.7098C94.8463 45.8279 94.109 45.0509 93.2598 44.4103C93.2598 44.4103 90.7386 43.1214 90.3118 41.6379C90.1075 40.3826 90.1695 39.0983 90.4945 37.8687C90.8195 36.639 91.3999 35.4917 92.1977 34.5012C93.3922 33.0812 91.8848 35.6112 91.4897 36.5651C91.0946 37.5191 89.9769 40.0583 91.4897 42.109C91.9315 36.8249 94.3057 35.648 95.7966 28.3668C95.2955 28.1521 94.2614 26.6862 96.0397 25.7131C95.7435 25.3343 95.5349 24.8939 95.4312 24.4244C95.3276 23.9549 95.3317 23.4682 95.441 23C95.7918 21.854 96.2061 21.7303 96.6613 21.6893C97.1165 21.6484 98.229 22.1438 98.0953 24.3573C98.6243 24.2962 99.1587 24.2962 99.6876 24.3573C99.6876 24.3573 99.2748 22.2932 100.808 21.5849C101.219 21.3845 101.689 21.3462 102.127 21.4774C102.564 21.6087 102.937 21.9001 103.169 22.2934C103.169 22.2934 104.171 24.2395 102.931 25.7179C103.118 25.8016 103.283 25.9265 103.415 26.083C103.548 26.2395 103.642 26.4237 103.693 26.622C103.744 26.8203 103.751 27.0274 103.711 27.2282C103.671 27.4291 103.586 27.6185 103.463 27.7821L104.76 31.7339C104.76 31.7339 106.47 35.0959 107.295 36.9828C107.786 38.0918 108.122 39.2626 108.297 40.4626H109.241C109.241 40.4626 110.573 37.0723 107.129 33.5774C106.894 33.3084 107.224 33.2841 107.295 33.3451C107.366 33.4061 110.838 36.5827 110.008 40.7583C110.67 41.2269 112.754 41.6046 112.367 43.8256C113.151 43.9559 113.369 43.8256 113.369 43.8256C113.907 41.5451 113.721 39.1536 112.837 36.9836C111.868 34.6403 110.467 32.4997 108.708 30.673C107.386 29.2482 106.669 27.3671 106.704 25.4241C106.868 22.9581 106.505 20.4854 105.642 18.1695C105.293 17.4859 104.761 16.9136 104.104 16.5175C103.447 16.1214 102.69 15.9173 101.923 15.9283C100.964 15.8296 99.9988 15.828 99.0399 15.9234Z" fill="#7C90AA"/>
<path d="M89.1373 44.1512C87.7749 44.3784 87.941 45.1418 87.3688 45.6505C86.7967 46.1592 86.2591 46.0958 85.646 46.4658C85.0329 46.8359 84.7163 47.3848 84.9869 48.6528C85.1805 49.4412 85.0912 50.2726 84.7357 51.0024C84.5494 51.5729 84.7926 52.4833 86.018 52.5284C87.1634 52.5351 88.3026 52.6932 89.4065 52.9987C91.3068 53.4339 92.4831 54.6366 93.7494 53.5934C94.1007 53.3536 94.3834 53.0259 94.5683 52.6428C94.7533 52.2598 94.8355 51.8351 94.8049 51.4109C94.5951 50.5259 94.1291 49.7217 93.4671 49.0979C92.6053 48.2874 91.9185 47.3088 91.449 46.2227C91.0648 45.4768 90.4972 43.9249 89.1373 44.1512Z" fill="#7C90AA"/>
<path d="M115.022 49.3493C114.853 48.061 114.45 48.3326 113.991 47.7776C113.533 47.2227 113.827 46.5412 113.499 45.9515C113.17 45.3619 113.141 44.7927 111.938 45.0071C110.735 45.2214 109.76 47.0195 107.966 45.8112C107.347 45.335 106.942 44.0358 106.862 45.1877C106.855 46.5298 106.69 47.8664 106.37 49.1699C105.898 50.9429 105.092 51.9758 106.033 53.2051C106.246 53.5436 106.545 53.82 106.899 54.0067C107.254 54.1933 107.651 54.2835 108.051 54.2684C108.891 54.1007 109.664 53.6889 110.272 53.0846C111.063 52.2998 112.007 51.6856 113.045 51.2802C113.76 50.9435 115.191 50.6377 115.022 49.3493Z" fill="#7C90AA"/>
<path d="M109.294 41.2243C109.294 41.2243 106.92 40.749 107.25 42.773C107.58 44.7969 108.384 45.1885 108.384 45.1885C108.667 45.4012 109.012 45.5162 109.366 45.5162C109.72 45.5162 110.067 45.4012 110.35 45.1885C110.969 44.8225 111.503 44.3298 111.918 43.7426C111.918 43.7426 112.539 42.7102 111.113 41.9676C110.557 41.6125 109.94 41.3608 109.294 41.2243Z" fill="#7C90AA"/>
<path d="M95.2891 50.1614C95.2891 50.1614 98.5373 52.8193 101.599 51.5571C102.766 51.1399 103.896 50.6281 104.98 50.0269C104.98 50.0269 104.145 52.8719 104.551 53.4357C104.957 53.9996 102.25 53.14 100.066 53.221C97.8816 53.302 97.894 53.6504 95.8242 53.7581C96.738 52.5503 95.2891 50.1614 95.2891 50.1614Z" fill="#7C90AA"/>
<path d="M97.0007 22.9341C97.4092 22.9341 97.7408 23.4946 97.7408 24.187C97.7404 24.3419 97.723 24.4962 97.689 24.6473C97.4158 24.9517 97.0714 25.1836 96.6866 25.3222C96.5376 25.1752 96.4223 24.9975 96.3487 24.8015C96.2752 24.6055 96.2451 24.3958 96.2606 24.187C96.2606 23.4946 96.5947 22.9341 97.0007 22.9341Z" fill="#7C90AA"/>
<path d="M101.559 22.8193C101.875 22.8513 102.167 23.0066 102.37 23.2517C102.573 23.4967 102.672 23.8119 102.644 24.1291C102.621 24.6 102.426 25.046 102.095 25.382C101.94 25.5232 101.12 25.1582 100.714 24.9485C100.585 24.696 100.532 24.4112 100.562 24.1291C100.562 23.404 100.961 22.8193 101.559 22.8193Z" fill="#7C90AA"/>
<path d="M97.7418 25.4156C97.2065 25.735 96.6982 26.0982 96.2229 26.5015C96.1207 26.5764 96.0371 26.6742 95.9798 26.7872C95.9225 26.9002 95.8934 27.025 95.8934 27.1516C95.8934 27.2783 95.9225 27.4033 95.9798 27.5163C96.0371 27.6293 96.1207 27.7271 96.2229 27.802C96.7698 28.3369 97.3645 28.8206 97.9996 29.247C98.2633 29.4714 98.5908 29.6063 98.936 29.6322C99.2812 29.6582 99.6271 29.574 99.9214 29.3916C100.767 29.0199 102.233 28.1937 102.233 28.1937C102.233 28.1937 103.82 26.9133 102.233 26.1891C100.646 25.4649 100.951 25.5284 99.9214 25.1358C99.5726 24.9558 99.1768 24.8862 98.7875 24.9362C98.3983 24.9861 98.0337 25.1533 97.7418 25.4156Z" fill="#7C90AA"/>
</g>
<defs>
<clipPath id="clip0_855_214212">
<rect width="121.118" height="71" fill="white" transform="translate(0.235229)"/>
</clipPath>
</defs>
</svg>
