<svg width="122" height="71" viewBox="0 0 122 71" fill="none" xmlns="http://www.w3.org/2000/svg">
<g clip-path="url(#clip0_855_214236)">
<path d="M56.2641 28.5454L52.2254 42.8431H50.2616L47.3164 32.3878C47.1855 31.9126 47.1087 31.4242 47.0875 30.9318H47.0483C47.0093 31.4178 46.9226 31.8988 46.7893 32.3677L43.8282 42.8365H41.887L37.6996 28.5454H39.544L42.5853 39.5128C42.7131 39.9822 42.7931 40.4632 42.8242 40.9487H42.8743C42.935 40.462 43.0381 39.9815 43.1825 39.5128L46.3433 28.5454H47.9487L50.9792 39.593C51.0958 40.0311 51.1757 40.4781 51.218 40.9295H51.2573C51.3065 40.4639 51.3968 40.0035 51.5271 39.5538L54.4506 28.5471H56.2657L56.2641 28.5454Z" fill="#7C90AA"/>
<path d="M58.516 30.0371C58.3771 30.0402 58.2389 30.0154 58.1097 29.964C57.9806 29.9126 57.8631 29.8358 57.7643 29.738C57.6628 29.6403 57.583 29.5223 57.5299 29.3919C57.4769 29.2614 57.4517 29.1212 57.456 28.9804C57.4532 28.8404 57.4786 28.7013 57.5306 28.5713C57.5825 28.4412 57.6601 28.323 57.7587 28.2235C57.8572 28.124 57.9747 28.0453 58.1043 27.9921C58.2338 27.9389 58.3727 27.9123 58.5127 27.9137C58.6536 27.9112 58.7937 27.9368 58.9246 27.989C59.0555 28.0412 59.1748 28.119 59.2753 28.2178C59.3747 28.3169 59.4536 28.4346 59.5075 28.5643C59.5613 28.6939 59.589 28.8329 59.589 28.9733C59.589 29.1137 59.5613 29.2527 59.5075 29.3823C59.4536 29.512 59.3747 29.6297 59.2753 29.7288C59.176 29.8286 59.0576 29.9074 58.9271 29.9603C58.7966 30.0133 58.6568 30.0394 58.516 30.0371ZM59.3137 42.8396H57.6782V32.6298H59.3137V42.8396Z" fill="#7C90AA"/>
<path d="M70.3018 42.8395H68.6663V37.0175C68.6663 34.8507 67.8753 33.7673 66.2932 33.7673C65.9078 33.7588 65.5254 33.8369 65.1742 33.996C64.8231 34.155 64.5121 34.3909 64.2643 34.6862C63.7166 35.3354 63.4304 36.1653 63.4616 37.0141V42.8361H61.826V32.6297H63.4657V34.3245H63.505C63.8293 33.7233 64.3144 33.224 64.906 32.8826C65.4976 32.5411 66.1725 32.3708 66.8554 32.3908C67.337 32.3609 67.8191 32.443 68.2637 32.6307C68.7084 32.8183 69.1035 33.1065 69.418 33.4725C70.0669 34.3801 70.3805 35.4849 70.3051 36.5981V42.8403L70.3018 42.8395Z" fill="#7C90AA"/>
<path d="M81.9344 42.8397H80.2988V41.1048H80.2596C79.9249 41.6534 79.4665 42.1161 78.9211 42.4559C78.3757 42.7957 77.7584 43.0031 77.1185 43.0618C76.4785 43.1204 75.8338 43.0284 75.2357 42.7934C74.6377 42.5583 74.1029 42.1866 73.6741 41.7079C72.8564 40.6409 72.4478 39.3164 72.5223 37.9742C72.4484 36.5126 72.9013 35.0731 73.7986 33.9171C74.2102 33.4188 74.731 33.022 75.3207 32.7575C75.9104 32.4929 76.5532 32.3679 77.1991 32.3919C77.8132 32.3521 78.426 32.4863 78.9674 32.779C79.5087 33.0717 79.9566 33.511 80.2596 34.0466H80.2988V27.7251H81.9344V42.8439V42.8397ZM80.2997 38.2239V36.7204C80.3083 36.3346 80.2405 35.951 80.1001 35.5916C79.9598 35.2322 79.7497 34.9041 79.4819 34.6263C79.2162 34.3452 78.894 34.1235 78.5366 33.9757C78.1792 33.8279 77.7945 33.7572 77.4079 33.7685C76.9565 33.7497 76.5073 33.8395 76.0979 34.0303C75.6884 34.2212 75.3307 34.5075 75.0549 34.8652C74.4367 35.7503 74.1346 36.8178 74.197 37.8956C74.1413 38.8916 74.432 39.8762 75.0198 40.6822C75.2816 41.0142 75.618 41.2798 76.0018 41.4573C76.3856 41.6348 76.8058 41.7192 77.2283 41.7037C77.6486 41.7168 78.0664 41.6348 78.4505 41.4639C78.8347 41.2929 79.1753 41.0374 79.4469 40.7164C80.0289 40.0196 80.3324 39.132 80.2988 38.2247L80.2997 38.2239Z" fill="#7C90AA"/>
<path d="M89.0828 43.0787C88.4134 43.1096 87.7451 42.9982 87.1221 42.7517C86.499 42.5052 85.9354 42.1292 85.4685 41.6486C84.5365 40.611 84.0512 39.2478 84.1178 37.8547C84.0745 37.1253 84.1765 36.3946 84.4178 35.7049C84.6591 35.0152 85.035 34.3803 85.5236 33.837C86.0221 33.3462 86.617 32.9642 87.2708 32.7153C87.9246 32.4664 88.623 32.356 89.3217 32.3911C89.9817 32.3538 90.642 32.4599 91.2572 32.7022C91.8723 32.9444 92.4276 33.317 92.885 33.7944C93.7923 34.8836 94.2505 36.2776 94.1664 37.6927C94.2363 39.1276 93.7406 40.5327 92.7856 41.606C92.3081 42.1002 91.7309 42.4869 91.0923 42.7406C90.4536 42.9942 89.7683 43.1089 89.0819 43.077L89.0828 43.0787ZM89.2022 33.766C88.7328 33.7446 88.2646 33.8299 87.8328 34.0155C87.4011 34.2011 87.0171 34.4822 86.7097 34.8377C86.0555 35.6792 85.729 36.7296 85.7909 37.7938C85.7324 38.83 86.0633 39.8508 86.7189 40.6555C87.0296 41.0026 87.4134 41.2765 87.8427 41.4574C88.2719 41.6384 88.736 41.722 89.2014 41.7021C89.6594 41.7294 90.1175 41.651 90.5403 41.4728C90.9631 41.2947 91.3393 41.0216 91.6396 40.6747C92.2581 39.8305 92.5597 38.7955 92.4916 37.7512C92.5596 36.6983 92.2583 35.6547 91.6396 34.8001C91.3404 34.4517 90.9647 34.1772 90.5419 33.998C90.1191 33.8187 89.6606 33.7396 89.2022 33.7668V33.766Z" fill="#7C90AA"/>
<path d="M108.903 32.6299L105.845 42.8397H104.149L102.046 35.5309C101.96 35.2217 101.907 34.9046 101.886 34.5845H101.847C101.81 34.9004 101.74 35.2115 101.637 35.5125L99.3544 42.8405H97.7189L94.6283 32.6307H96.3432L98.4565 40.3071C98.5333 40.608 98.58 40.9158 98.5959 41.2259H98.6795C98.7044 40.9078 98.7646 40.5935 98.8591 40.2887L101.212 32.6316H102.707L104.821 40.3288C104.896 40.6304 104.946 40.9377 104.971 41.2476H105.054C105.076 40.9361 105.132 40.6279 105.222 40.3288L107.296 32.6316L108.903 32.6299Z" fill="#7C90AA"/>
<path d="M109.658 42.4697V40.7156C110.503 41.3589 111.537 41.7059 112.599 41.7029C114.035 41.7029 114.753 41.2243 114.753 40.2671C114.76 40.023 114.696 39.782 114.569 39.5738C114.436 39.3758 114.266 39.2055 114.068 39.0726C113.837 38.9151 113.589 38.7832 113.33 38.6792C113.048 38.5631 112.745 38.4419 112.418 38.315C112.011 38.1562 111.613 37.9747 111.227 37.7712C110.912 37.6086 110.623 37.4003 110.369 37.1531C110.144 36.9306 109.967 36.6642 109.85 36.3704C109.728 36.0423 109.668 35.694 109.676 35.3438C109.667 34.8981 109.781 34.4584 110.004 34.0725C110.225 33.7024 110.524 33.3855 110.882 33.1445C111.265 32.8875 111.688 32.6968 112.135 32.5807C112.608 32.4541 113.095 32.3906 113.585 32.3919C114.399 32.3786 115.207 32.5347 115.958 32.8505V34.5052C115.187 34.0083 114.286 33.7516 113.368 33.7676C113.089 33.7642 112.811 33.7996 112.542 33.8729C112.315 33.9334 112.101 34.0329 111.908 34.1669C111.74 34.2853 111.6 34.4404 111.5 34.6205C111.403 34.7999 111.353 35.0011 111.355 35.2052C111.348 35.4364 111.397 35.666 111.5 35.8734C111.604 36.0619 111.749 36.2253 111.923 36.352C112.134 36.5046 112.361 36.6316 112.602 36.7304C112.868 36.8418 113.171 36.9649 113.51 37.0996C113.924 37.2564 114.33 37.4343 114.726 37.6325C115.058 37.7967 115.367 38.0046 115.645 38.2507C115.892 38.4723 116.091 38.742 116.229 39.0433C116.373 39.3803 116.442 39.744 116.433 40.11C116.445 40.5712 116.329 41.0268 116.099 41.4264C115.876 41.7994 115.571 42.1165 115.207 42.3536C114.813 42.6092 114.378 42.7948 113.921 42.9024C113.421 43.0238 112.909 43.0841 112.395 43.082C111.446 43.1062 110.506 42.8958 109.658 42.4697Z" fill="#7C90AA"/>
<path d="M16.9944 35.1842H30.5437V23.3882L16.9944 25.3653V35.1842Z" fill="#7C90AA"/>
<path d="M16.0388 35.1843V25.5083L6.19989 26.94V35.1843H16.0388Z" fill="#7C90AA"/>
<path d="M16.0388 36.1382H6.19989V44.4911L16.0388 45.9429V36.1382Z" fill="#7C90AA"/>
<path d="M16.9944 36.138V46.078L30.5437 48.076V36.1313L16.9944 36.138Z" fill="#7C90AA"/>
</g>
<defs>
<clipPath id="clip0_855_214236">
<rect width="121.118" height="71" fill="white" transform="translate(0.352844)"/>
</clipPath>
</defs>
</svg>
