<svg width="122" height="71" viewBox="0 0 122 71" fill="none" xmlns="http://www.w3.org/2000/svg">
<g clip-path="url(#clip0_855_214197)">
<path d="M84.0026 27.3685H80.3273V25.4741C80.3273 24.746 80.0381 24.0477 79.5233 23.5329C79.0085 23.0181 78.3102 22.7289 77.5821 22.7289C76.8541 22.7289 76.1558 23.0181 75.641 23.5329C75.1262 24.0477 74.837 24.746 74.837 25.4741V27.3685H71.1617V25.4741C71.1617 23.7718 71.8379 22.1393 73.0416 20.9356C74.2452 19.7319 75.8778 19.0557 77.5801 19.0557C79.2823 19.0557 80.9149 19.7319 82.1186 20.9356C83.3222 22.1393 83.9985 23.7718 83.9985 25.4741L84.0026 27.3685Z" fill="#7C90AA"/>
<path d="M85.5103 27.3683H69.6572C69.4942 27.3661 69.3324 27.3967 69.1813 27.4581C69.0302 27.5195 68.893 27.6105 68.7777 27.7258C68.6624 27.8411 68.5714 27.9784 68.51 28.1294C68.4486 28.2805 68.418 28.4423 68.4201 28.6053V40.3212C68.418 40.4842 68.4486 40.646 68.51 40.7971C68.5714 40.9481 68.6624 41.0854 68.7777 41.2007C68.893 41.316 69.0302 41.407 69.1813 41.4684C69.3324 41.5298 69.4942 41.5604 69.6572 41.5582H85.5103C85.6733 41.5604 85.8351 41.5298 85.9862 41.4684C86.1372 41.407 86.2744 41.316 86.3897 41.2007C86.505 41.0854 86.5961 40.9481 86.6575 40.7971C86.7189 40.646 86.7495 40.4842 86.7473 40.3212V28.6053C86.7387 28.28 86.6056 27.9703 86.3754 27.7402C86.1453 27.51 85.8356 27.3769 85.5103 27.3683ZM78.3576 35.063V36.6501C78.3576 36.7567 78.3366 36.8623 78.2958 36.9608C78.255 37.0593 78.1952 37.1488 78.1198 37.2242C78.0444 37.2996 77.9549 37.3594 77.8564 37.4002C77.7579 37.441 77.6523 37.462 77.5457 37.462C77.4391 37.462 77.3335 37.441 77.235 37.4002C77.1365 37.3594 77.047 37.2996 76.9716 37.2242C76.8962 37.1488 76.8364 37.0593 76.7956 36.9608C76.7548 36.8623 76.7338 36.7567 76.7338 36.6501V35.063C76.4812 34.9208 76.2721 34.7125 76.1291 34.4604C75.986 34.2082 75.9144 33.9219 75.9219 33.6321C75.9219 33.2015 76.093 32.7885 76.3975 32.4839C76.702 32.1794 77.1151 32.0083 77.5457 32.0083C77.9764 32.0083 78.3894 32.1794 78.6939 32.4839C78.9985 32.7885 79.1695 33.2015 79.1695 33.6321C79.1852 33.9234 79.1169 34.213 78.9728 34.4667C78.8288 34.7203 78.615 34.9272 78.3568 35.063H78.3576Z" fill="#7C90AA"/>
<path d="M68.0331 25.6295H64.205C63.9076 25.6295 63.6224 25.5113 63.4121 25.301C63.2018 25.0907 63.0836 24.8055 63.0836 24.5081C63.0836 24.2107 63.2018 23.9255 63.4121 23.7152C63.6224 23.5049 63.9076 23.3867 64.205 23.3867H68.0331C68.3306 23.3867 68.6158 23.5049 68.8261 23.7152C69.0364 23.9255 69.1545 24.2107 69.1545 24.5081C69.1545 24.8055 69.0364 25.0907 68.8261 25.301C68.6158 25.5113 68.3306 25.6295 68.0331 25.6295Z" fill="#7C90AA"/>
<path d="M70.7403 19.597C70.482 19.6008 70.2324 19.5038 70.0445 19.3264L67.0283 16.8523C66.9141 16.7583 66.8194 16.6428 66.7498 16.5123C66.6802 16.3817 66.637 16.2388 66.6227 16.0916C66.6083 15.9444 66.6231 15.7958 66.6662 15.6543C66.7093 15.5128 66.7798 15.3811 66.8738 15.2669C66.9677 15.1526 67.0833 15.058 67.2138 14.9884C67.3443 14.9188 67.4872 14.8756 67.6345 14.8613C67.7817 14.8469 67.9303 14.8617 68.0718 14.9048C68.2133 14.9479 68.3449 15.0184 68.4592 15.1123L71.4754 17.5873C71.702 17.7801 71.8448 18.0535 71.8736 18.3496C71.9025 18.6457 71.8151 18.9415 71.6299 19.1744C71.5167 19.2998 71.3798 19.4017 71.2272 19.4742C71.0745 19.5467 70.9091 19.5885 70.7403 19.597Z" fill="#7C90AA"/>
<path d="M77.5831 16.9682C77.2857 16.9679 77.0006 16.8496 76.7904 16.6393C76.5802 16.4289 76.4621 16.1437 76.4621 15.8464V11.9798C76.4621 11.6824 76.5802 11.3971 76.7905 11.1868C77.0008 10.9765 77.2861 10.8584 77.5835 10.8584C77.8809 10.8584 78.1661 10.9765 78.3764 11.1868C78.5867 11.3971 78.7049 11.6824 78.7049 11.9798V15.8464C78.7046 16.1438 78.5864 16.429 78.376 16.6393C78.1657 16.8497 77.8805 16.9679 77.5831 16.9682Z" fill="#7C90AA"/>
<path d="M84.3879 19.5966C84.2231 19.5953 84.0608 19.5563 83.9134 19.4826C83.766 19.4089 83.6375 19.3025 83.5375 19.1715C83.3532 18.9382 83.2663 18.6427 83.2952 18.3468C83.324 18.0509 83.4662 17.7777 83.6921 17.5844L86.7083 15.1094C86.9391 14.9197 87.2357 14.8294 87.533 14.8583C87.8303 14.8873 88.104 15.0332 88.2937 15.264C88.4835 15.4947 88.5738 15.7913 88.5448 16.0886C88.5158 16.386 88.3699 16.6596 88.1392 16.8493L85.1229 19.3235C84.9205 19.5029 84.6584 19.6003 84.3879 19.5966Z" fill="#7C90AA"/>
<path d="M90.9231 25.6295H87.0565C86.7591 25.6295 86.4739 25.5113 86.2636 25.301C86.0533 25.0907 85.9351 24.8055 85.9351 24.5081C85.9351 24.2107 86.0533 23.9255 86.2636 23.7152C86.4739 23.5049 86.7591 23.3867 87.0565 23.3867H90.9231C91.2205 23.3867 91.5057 23.5049 91.716 23.7152C91.9263 23.9255 92.0445 24.2107 92.0445 24.5081C92.0445 24.8055 91.9263 25.0907 91.716 25.301C91.5057 25.5113 91.2205 25.6295 90.9231 25.6295Z" fill="#7C90AA"/>
<path d="M28.5176 41.4038V28.9153H31.5322V38.7718H36.3669V41.4013L28.5176 41.4038ZM46.3419 37.112V37.8078H39.9628C39.9991 38.0394 40.0778 38.2622 40.195 38.4652C40.3074 38.6668 40.4664 38.8386 40.6586 38.9664C40.8558 39.1198 41.0783 39.2377 41.316 39.3147C41.5533 39.3909 41.8009 39.4301 42.0502 39.4308C42.423 39.4414 42.793 39.3628 43.1292 39.2013C43.4655 39.0399 43.7582 38.8004 43.9831 38.5028L45.9936 39.7783C45.5769 40.3705 45.0187 40.8492 44.3698 41.1707C43.6295 41.5077 42.8244 41.6788 42.0109 41.6719C41.3796 41.6699 40.7528 41.5655 40.1549 41.3628C39.588 41.1667 39.0633 40.8648 38.6088 40.4732C38.1397 40.0341 37.7694 39.5 37.5227 38.9066C37.276 38.3133 37.1585 37.6742 37.1779 37.0318C37.16 36.3664 37.2922 35.7055 37.5647 35.0981C37.7836 34.539 38.1263 34.0367 38.567 33.6288C38.9998 33.2183 39.5133 32.9023 40.0747 32.7008C40.6654 32.467 41.2955 32.3491 41.9308 32.3534C42.537 32.3519 43.1389 32.4565 43.7091 32.6624C44.2284 32.8796 44.7012 33.1947 45.1015 33.5904C45.5003 34.0252 45.8034 34.5388 45.9911 35.0981C46.2299 35.7424 46.3488 36.4249 46.3419 37.112ZM43.674 36.0261C43.6751 35.5895 43.5248 35.1659 43.2489 34.8275C43.083 34.6485 42.8781 34.5102 42.6501 34.4232C42.422 34.3363 42.177 34.3032 41.9341 34.3263C41.6718 34.3241 41.4107 34.3633 41.1606 34.4424C40.9348 34.5198 40.725 34.6379 40.5417 34.7907C40.3679 34.9435 40.2238 35.127 40.1165 35.332C40.012 35.5373 39.9466 35.7602 39.9235 35.9894H43.674V36.0261ZM50.982 34.7891V38.1528C50.9551 38.4793 51.0367 38.8055 51.2142 39.0808C51.323 39.194 51.4563 39.2808 51.6038 39.3344C51.7514 39.3879 51.9093 39.4069 52.0654 39.3899C52.2209 39.3962 52.3766 39.3833 52.529 39.3514C52.6609 39.3242 52.7902 39.2859 52.9157 39.237L52.9541 41.3637C52.6999 41.4417 52.4417 41.5061 52.1806 41.5566C51.8732 41.6018 51.5633 41.6277 51.2526 41.6343C50.7527 41.6486 50.2545 41.5698 49.7834 41.4021C49.4169 41.2753 49.0857 41.0635 48.8169 40.784C48.568 40.4975 48.3956 40.1527 48.3157 39.7816C48.2216 39.3627 48.1698 38.9354 48.1612 38.5061V34.7924H46.7287V32.6265H48.1211V30.3069H50.982V32.6265H53.031V34.7916L50.982 34.7891ZM55.6989 28.6797C55.5031 28.6709 55.3076 28.701 55.1235 28.7684C54.9395 28.8357 54.7706 28.9389 54.6268 29.072C54.483 29.2051 54.367 29.3655 54.2856 29.5438C54.2043 29.7221 54.1591 29.9147 54.1528 30.1106C54.1434 30.2992 54.1744 30.4876 54.2435 30.6633C54.3127 30.839 54.4184 30.998 54.5538 31.1297C54.6892 31.2613 54.851 31.3626 55.0286 31.4269C55.2062 31.4911 55.3954 31.5168 55.5836 31.5022C55.6505 31.5123 55.7187 31.4987 55.7766 31.4638C55.6919 31.763 55.5229 32.0315 55.2898 32.2372C55.0567 32.4429 54.7692 32.5772 54.4618 32.624H54.3457V33.9772H54.5028C55.1959 33.8971 55.8458 33.599 56.3588 33.126C56.6975 32.7801 56.9614 32.368 57.1338 31.9156C57.3063 31.4632 57.3837 30.9801 57.3611 30.4965C57.3779 30.2667 57.3475 30.036 57.2719 29.8184C57.1962 29.6008 57.0769 29.401 56.9213 29.2312C56.7656 29.0613 56.5769 28.9251 56.3667 28.8309C56.1565 28.7366 55.9292 28.6863 55.6989 28.6831V28.6797ZM62.3879 35.2142C62.1503 34.9785 61.8761 34.7827 61.576 34.6345C61.2643 34.4809 60.9212 34.4015 60.5737 34.4023C60.3201 34.3938 60.0681 34.4468 59.8395 34.5569C59.7317 34.5988 59.64 34.6737 59.5775 34.771C59.5149 34.8682 59.4847 34.9827 59.4911 35.0981C59.49 35.2177 59.5268 35.3345 59.5963 35.4318C59.6658 35.529 59.7644 35.6017 59.8779 35.6394C60.2775 35.7969 60.6919 35.9136 61.115 35.9877C61.459 36.0553 61.7949 36.1589 62.1173 36.2968C62.4307 36.432 62.7288 36.6 63.0069 36.798C63.2852 36.999 63.5107 37.2644 63.6643 37.5714C63.8272 37.9097 63.9069 38.282 63.8965 38.6573C63.9102 39.1443 63.7897 39.6258 63.5482 40.0489C63.3354 40.4289 63.0292 40.7483 62.6586 40.9769C62.2879 41.206 61.8834 41.3752 61.4599 41.4781C61.0172 41.5867 60.5625 41.6387 60.1068 41.6326C59.3959 41.6366 58.6896 41.5188 58.0185 41.2843C57.3816 41.0859 56.7993 40.7429 56.317 40.282L57.9408 38.5805C58.2227 38.8638 58.5492 39.0989 58.9073 39.2763C59.2793 39.4614 59.6904 39.5542 60.1059 39.5469C60.3468 39.5514 60.5853 39.4984 60.8017 39.3924C60.9114 39.3421 61.0034 39.2598 61.0655 39.1564C61.1277 39.053 61.1571 38.9332 61.15 38.8127C61.145 38.6799 61.1024 38.5512 61.0271 38.4416C60.9518 38.3321 60.847 38.2461 60.7249 38.1937C60.3003 38.0221 59.86 37.8926 59.4101 37.807C59.0958 37.7349 58.7859 37.6445 58.4821 37.5364C58.1873 37.4287 57.9128 37.272 57.6702 37.0728C57.4358 36.8635 57.2397 36.6151 57.0905 36.3385C56.9321 36.0136 56.8526 35.6559 56.8583 35.2944C56.8443 34.8195 56.9651 34.3504 57.2066 33.9412C57.4182 33.5843 57.7095 33.2813 58.0578 33.0558C58.4063 32.8114 58.8011 32.6409 59.218 32.5547C59.6346 32.4461 60.0639 32.3941 60.4943 32.4001C61.1505 32.4053 61.8021 32.5095 62.4272 32.7092C63.0237 32.8852 63.5684 33.2037 64.0143 33.6372L62.3879 35.2142ZM28.5176 55.8644V43.3759H36.9081V45.9277H31.4177V48.2866H36.5966V50.6805H31.4177V53.27H37.2172V55.8594L28.5176 55.8644ZM44.8342 55.8644V51.0698C44.8276 50.8361 44.8016 50.6034 44.7566 50.374C44.7218 50.1721 44.6567 49.9767 44.5636 49.7943C44.4763 49.6296 44.3415 49.4949 44.1769 49.4076C43.9792 49.2888 43.7494 49.2347 43.5195 49.253C43.2778 49.2398 43.0371 49.2933 42.8237 49.4076C42.631 49.516 42.4609 49.6603 42.3225 49.8327C42.1967 50.0269 42.093 50.2345 42.0135 50.4517C41.9375 50.6758 41.8983 50.9108 41.8973 51.1475V55.9036H38.9955V47.1264H41.7796V48.325H41.818C41.9253 48.12 42.0694 47.9365 42.2432 47.7837C42.4085 47.597 42.6046 47.44 42.8229 47.3193C43.0572 47.1932 43.3031 47.0897 43.5571 47.0103C43.8335 46.9312 44.1199 46.8921 44.4074 46.8941C44.9263 46.8877 45.4406 46.9931 45.9151 47.2032C46.304 47.3982 46.646 47.6752 46.9175 48.0151C47.1744 48.3613 47.3585 48.756 47.4587 49.1753C47.5696 49.6046 47.6215 50.0469 47.6133 50.4901V55.9028H44.8342V55.8644ZM55.1961 49.9096C55.02 49.6925 54.7946 49.5207 54.5387 49.4084C54.2705 49.2894 53.9817 49.2238 53.6884 49.2154C53.4063 49.215 53.1282 49.2812 52.8764 49.4084C52.63 49.5187 52.4167 49.6915 52.2575 49.9096C52.0934 50.1271 51.951 50.3601 51.8323 50.6054C51.626 51.1538 51.626 51.7585 51.8323 52.3069C51.9124 52.5713 52.0587 52.8108 52.2575 53.0027C52.4442 53.22 52.6754 53.3947 52.9356 53.5148C53.1957 53.6348 53.4787 53.6975 53.7652 53.6985C54.0686 53.7037 54.3702 53.6512 54.654 53.5439C54.9231 53.4358 55.1619 53.2638 55.3498 53.0427L56.9368 55.0149C56.5364 55.3824 56.0615 55.6593 55.5444 55.8268C54.9589 56.0263 54.3453 56.1307 53.7268 56.1358C53.0701 56.1369 52.4175 56.0325 51.7939 55.8268C51.2014 55.6418 50.6587 55.3245 50.2069 54.8988C49.7377 54.4596 49.3675 53.9255 49.1208 53.3322C48.8741 52.7388 48.7565 52.0997 48.776 51.4574C48.7579 50.7919 48.8901 50.131 49.1627 49.5237C49.4102 48.9697 49.7651 48.4703 50.2069 48.0544C50.6627 47.6342 51.2041 47.3176 51.7939 47.1264C52.4137 46.9051 53.069 46.8004 53.7268 46.8173C54.0374 46.8239 54.3474 46.8498 54.6548 46.895C54.9638 46.9727 55.2737 47.0495 55.5444 47.1272C55.8223 47.2403 56.0934 47.3694 56.3563 47.5139C56.5863 47.6494 56.7949 47.8183 56.9752 48.0151L55.1961 49.9096ZM63.625 49.4844C63.5005 49.44 63.3703 49.4139 63.2383 49.4067H62.89C62.5579 49.4031 62.2287 49.4689 61.9235 49.5997C61.6866 49.7249 61.4763 49.8951 61.3046 50.1008C61.1511 50.298 61.0332 50.5205 60.9563 50.7582C60.8838 50.9567 60.8445 51.1659 60.8401 51.3772V55.8619H57.9417V47.0888H60.7257V48.3643H60.7675C60.9809 47.9185 61.3159 47.5421 61.7339 47.2784C62.1588 46.9993 62.6564 46.8514 63.1648 46.8532H63.5131C63.6292 46.8532 63.706 46.8916 63.7837 46.8916L63.625 49.4844ZM70.4302 57.1783C70.2372 57.6427 70.0434 58.0295 69.8505 58.4154C69.6357 58.7582 69.3755 59.0703 69.077 59.3434C68.7653 59.5959 68.412 59.7921 68.0329 59.9231C67.5674 60.0546 67.0857 60.1196 66.602 60.116C66.3177 60.1216 66.0334 60.1088 65.7508 60.0776C65.5013 60.0526 65.2551 60.0008 65.0166 59.9231L65.3257 57.4874L65.7901 57.6035C65.9424 57.6355 66.0982 57.6484 66.2537 57.6419C66.4272 57.657 66.602 57.6375 66.768 57.5845C66.9339 57.5314 67.0876 57.4459 67.2201 57.3328C67.4562 57.0808 67.6281 56.7757 67.7213 56.4432L67.9919 55.709L64.3208 47.0888H67.5334L69.5055 52.7337H69.5381L71.2805 47.0888H74.3352L70.4302 57.1783ZM84.8908 51.4565C84.8985 52.0601 84.8071 52.6609 84.6201 53.2349C84.4354 53.7792 84.161 54.2888 83.8082 54.7426C83.4417 55.1725 82.9952 55.5271 82.4935 55.7867C81.9412 56.0591 81.3306 56.1919 80.7151 56.1734C80.185 56.1679 79.6605 56.0631 79.169 55.8644C78.726 55.6672 78.3401 55.3612 78.0472 54.9748H78.0088V60.1945H75.1086V47.2032H77.8534V48.2891H77.891C78.2029 47.9119 78.5832 47.5971 79.012 47.3611C79.5351 47.0844 80.1221 46.9509 80.7135 46.9743C81.3158 46.9643 81.912 47.0968 82.4534 47.3611C82.961 47.5927 83.4103 47.9352 83.7681 48.3634C84.1206 48.8033 84.3952 49.3002 84.58 49.8327C84.794 50.3469 84.8998 50.8997 84.8908 51.4565ZM82.0683 51.4565C82.0677 51.1818 82.0286 50.9085 81.9522 50.6446C81.8705 50.3894 81.739 50.153 81.5655 49.9488C81.3894 49.7318 81.164 49.5599 80.9081 49.4476C80.6289 49.3203 80.3257 49.2544 80.0189 49.2544C79.7121 49.2544 79.4089 49.3203 79.1297 49.4476C78.8799 49.57 78.6566 49.7403 78.4724 49.9488C78.2862 50.165 78.1421 50.414 78.0472 50.683C77.8412 51.2047 77.8412 51.7852 78.0472 52.3069C78.1508 52.5718 78.2942 52.8193 78.4724 53.0411C78.6566 53.2496 78.8799 53.4199 79.1297 53.5423C79.4091 53.6694 79.7124 53.7351 80.0193 53.7352C80.3267 53.7395 80.631 53.6735 80.9089 53.5423C81.1587 53.4198 81.382 53.2495 81.5663 53.0411C81.7402 52.8228 81.8714 52.5737 81.953 52.3069C82.0265 52.0293 82.0657 51.7436 82.0683 51.4565ZM89.4924 49.2522V52.6159C89.4654 52.9424 89.547 53.2686 89.7246 53.5439C89.8332 53.6571 89.9664 53.7438 90.1138 53.7974C90.2612 53.8509 90.419 53.87 90.5749 53.853C90.7305 53.8593 90.8862 53.8464 91.0385 53.8146C91.1704 53.7867 91.2998 53.7478 91.4253 53.6985L91.4637 55.8251C91.2095 55.9033 90.9513 55.9677 90.6902 56.0181C90.3828 56.0632 90.0728 56.0892 89.7622 56.0958C89.2623 56.1099 88.7641 56.0312 88.2929 55.8635C87.9264 55.7366 87.5951 55.5244 87.3265 55.2446C87.0775 54.9581 86.9051 54.6133 86.8253 54.2422C86.7311 53.8231 86.6793 53.3955 86.6708 52.9659V49.253H85.2775V47.0888H86.6691V44.7675H89.4916V47.0888H91.5405V49.2539L89.4924 49.2522Z" fill="#7C90AA"/>
</g>
<defs>
<clipPath id="clip0_855_214197">
<rect width="121.118" height="71" fill="white" transform="translate(0.117615)"/>
</clipPath>
</defs>
</svg>
