<svg width="122" height="71" viewBox="0 0 122 71" fill="none" xmlns="http://www.w3.org/2000/svg">
<g clip-path="url(#clip0_748_132658)">
<path d="M60.8669 41.7714C59.8728 41.5235 58.8534 41.3915 57.829 41.3779C54.9556 41.3779 53.2265 42.9291 53.2265 45.2395C53.2265 47.2843 54.6732 48.3042 56.4106 48.853C56.6028 48.9165 56.8868 49.005 57.0789 49.0677C57.8515 49.3107 58.4688 49.6724 58.4688 50.298C58.4688 50.998 57.7555 51.4516 56.2052 51.4516C55.2084 51.4247 54.2191 51.2703 53.2616 50.9922V53.8322C54.3704 54.0453 55.4962 54.1571 56.6253 54.1663C59.0109 54.1663 61.739 53.1238 61.739 50.0216C61.739 48.518 60.8201 47.1306 58.7946 46.4883L57.9342 46.2143C57.4213 46.0522 56.505 45.79 56.505 45.0382C56.505 44.4443 57.1833 44.0258 58.4329 44.0258C59.2569 44.057 60.0745 44.1834 60.8694 44.4025L60.8669 41.7714ZM87.2088 47.7746C87.2038 48.411 87.0106 49.0317 86.6534 49.5585C86.2963 50.0852 85.7912 50.4945 85.2018 50.7346C84.6125 50.9748 83.9652 51.0351 83.3416 50.908C82.718 50.7809 82.146 50.472 81.6977 50.0203C81.2493 49.5686 80.9447 48.9943 80.8223 48.3698C80.6998 47.7452 80.765 47.0984 81.0096 46.5109C81.2541 45.9233 81.6671 45.4213 82.1966 45.0681C82.726 44.7149 83.3481 44.5263 83.9845 44.5262C84.4111 44.5222 84.8341 44.6037 85.2287 44.7658C85.6233 44.928 85.9813 45.1675 86.2819 45.4703C86.5824 45.773 86.8192 46.1329 86.9784 46.5287C87.1376 46.9245 87.2159 47.3481 87.2088 47.7746ZM83.9845 41.3813C82.7252 41.4071 81.5014 41.8042 80.4668 42.5227C79.4322 43.2412 78.6328 44.2493 78.1688 45.4203C77.7048 46.5914 77.5969 47.8734 77.8586 49.1056C78.1203 50.3377 78.7399 51.4652 79.6399 52.3466C80.5398 53.228 81.6799 53.824 82.9172 54.06C84.1546 54.296 85.4341 54.1614 86.5952 53.6732C87.7564 53.1849 88.7475 52.3647 89.4444 51.3153C90.1412 50.266 90.5127 49.0343 90.5124 47.7746C90.5199 46.9215 90.3552 46.0756 90.0281 45.2877C89.7011 44.4998 89.2183 43.7859 88.6088 43.189C87.9993 42.592 87.2756 42.1242 86.481 41.8136C85.6864 41.503 84.8373 41.3559 83.9845 41.3813ZM49.0458 53.9558H45.9285V41.601H49.0458" fill="#7C90AA"/>
<path d="M41.6432 41.8251C40.7245 41.5342 39.7669 41.3849 38.8032 41.3824C37.9446 41.3435 37.0872 41.4809 36.2838 41.786C35.4803 42.0911 34.7479 42.5575 34.1316 43.1565C33.5153 43.7555 33.0282 44.4744 32.7004 45.2689C32.3725 46.0633 32.2108 46.9165 32.2253 47.7758C32.2253 51.7559 35.2991 54.1733 38.8032 54.1733C39.7662 54.1659 40.723 54.0179 41.6432 53.7339V50.4178C40.8389 50.8519 39.9385 51.0773 39.0245 51.0735C38.5829 51.0876 38.1429 51.0127 37.7307 50.8534C37.3185 50.6941 36.9425 50.4536 36.6251 50.1461C36.3077 49.8386 36.0554 49.4705 35.883 49.0636C35.7107 48.6567 35.6219 48.2193 35.6219 47.7774C35.6219 47.3355 35.7107 46.8981 35.883 46.4912C36.0554 46.0843 36.3077 45.7162 36.6251 45.4088C36.9425 45.1013 37.3185 44.8608 37.7307 44.7015C38.1429 44.5422 38.5829 44.4673 39.0245 44.4814C39.9392 44.4765 40.8401 44.7035 41.6432 45.1413" fill="#7C90AA"/>
<path d="M74.179 41.8251C73.2603 41.5342 72.3027 41.3849 71.339 41.3824C70.4805 41.3435 69.623 41.4809 68.8196 41.786C68.0162 42.0911 67.2837 42.5575 66.6674 43.1565C66.0511 43.7555 65.564 44.4744 65.2362 45.2689C64.9083 46.0633 64.7466 46.9165 64.7611 47.7758C64.7611 51.7559 67.8349 54.1733 71.339 54.1733C72.302 54.1659 73.2588 54.0179 74.179 53.7339V50.4178C73.3747 50.8519 72.4743 51.0773 71.5604 51.0735C71.1187 51.0876 70.6787 51.0127 70.2665 50.8534C69.8543 50.6941 69.4784 50.4536 69.161 50.1461C68.8436 49.8386 68.5912 49.4705 68.4188 49.0636C68.2465 48.6567 68.1577 48.2193 68.1577 47.7774C68.1577 47.3355 68.2465 46.8981 68.4188 46.4912C68.5912 46.0843 68.8436 45.7162 69.161 45.4088C69.4784 45.1013 69.8543 44.8608 70.2665 44.7015C70.6787 44.5422 71.1187 44.4673 71.5604 44.4814C72.475 44.4765 73.3759 44.7035 74.179 45.1413" fill="#7C90AA"/>
<path d="M45.9191 18.248C45.9191 17.8375 45.756 17.4438 45.4657 17.1535C45.1755 16.8633 44.7818 16.7002 44.3713 16.7002C43.9608 16.7002 43.5671 16.8633 43.2768 17.1535C42.9865 17.4438 42.8235 17.8375 42.8235 18.248V34.6507C42.8235 35.0612 42.9865 35.4549 43.2768 35.7451C43.5671 36.0354 43.9608 36.1985 44.3713 36.1985C44.7818 36.1985 45.1755 36.0354 45.4657 35.7451C45.756 35.4549 45.9191 35.0612 45.9191 34.6507V18.248ZM37.4183 24.0708C37.4089 23.6667 37.2417 23.2822 36.9526 22.9997C36.6634 22.7172 36.2752 22.559 35.8709 22.559C35.4666 22.559 35.0784 22.7172 34.7892 22.9997C34.5 23.2822 34.3329 23.6667 34.3235 24.0708V31.5693C34.3329 31.9734 34.5 32.3579 34.7892 32.6404C35.0784 32.9229 35.4666 33.0811 35.8709 33.0811C36.2752 33.0811 36.6634 32.9229 36.9526 32.6404C37.2417 32.3579 37.4089 31.9734 37.4183 31.5693V24.0708ZM28.9183 28.3308C28.9089 27.9267 28.7418 27.5422 28.4526 27.2597C28.1634 26.9772 27.7752 26.819 27.3709 26.819C26.9667 26.819 26.5784 26.9772 26.2893 27.2597C26.0001 27.5422 25.8329 27.9267 25.8236 28.3308V31.5734C25.8329 31.9776 26.0001 32.3621 26.2893 32.6446C26.5784 32.9271 26.9667 33.0853 27.3709 33.0853C27.7752 33.0853 28.1634 32.9271 28.4526 32.6446C28.7418 32.3621 28.9089 31.9776 28.9183 31.5734" fill="#7C90AA"/>
<path d="M42.8239 18.248C42.8239 17.8375 42.987 17.4438 43.2773 17.1535C43.5675 16.8633 43.9612 16.7002 44.3717 16.7002C44.7822 16.7002 45.1759 16.8633 45.4662 17.1535C45.7564 17.4438 45.9195 17.8375 45.9195 18.248V34.6507C45.9195 35.0612 45.7564 35.4549 45.4662 35.7451C45.1759 36.0354 44.7822 36.1985 44.3717 36.1985C43.9612 36.1985 43.5675 36.0354 43.2773 35.7451C42.987 35.4549 42.8239 35.0612 42.8239 34.6507V18.248ZM51.3247 24.0708C51.3341 23.6667 51.5012 23.2822 51.7904 22.9997C52.0796 22.7172 52.4678 22.559 52.8721 22.559C53.2764 22.559 53.6646 22.7172 53.9538 22.9997C54.2429 23.2822 54.4101 23.6667 54.4195 24.0708V31.5693C54.4101 31.9734 54.2429 32.3579 53.9538 32.6404C53.6646 32.9229 53.2764 33.0811 52.8721 33.0811C52.4678 33.0811 52.0796 32.9229 51.7904 32.6404C51.5012 32.3579 51.3341 31.9734 51.3247 31.5693V24.0708ZM59.8247 28.3308C59.834 27.9267 60.0012 27.5422 60.2904 27.2597C60.5795 26.9772 60.9678 26.819 61.372 26.819C61.7763 26.819 62.1645 26.9772 62.4537 27.2597C62.7429 27.5422 62.91 27.9267 62.9194 28.3308V31.5734C62.91 31.9776 62.7429 32.3621 62.4537 32.6446C62.1645 32.9271 61.7763 33.0853 61.372 33.0853C60.9678 33.0853 60.5795 32.9271 60.2904 32.6446C60.0012 32.3621 59.834 31.9776 59.8247 31.5734" fill="#7C90AA"/>
<path d="M76.8157 18.248C76.8157 17.8375 76.9787 17.4438 77.269 17.1535C77.5593 16.8633 77.953 16.7002 78.3635 16.7002C78.774 16.7002 79.1676 16.8633 79.4579 17.1535C79.7482 17.4438 79.9113 17.8375 79.9113 18.248V34.6507C79.9113 35.0612 79.7482 35.4549 79.4579 35.7451C79.1676 36.0354 78.774 36.1985 78.3635 36.1985C77.953 36.1985 77.5593 36.0354 77.269 35.7451C76.9787 35.4549 76.8157 35.0612 76.8157 34.6507V18.248ZM85.3164 24.0708C85.3258 23.6667 85.493 23.2822 85.7822 22.9997C86.0713 22.7172 86.4596 22.559 86.8638 22.559C87.2681 22.559 87.6563 22.7172 87.9455 22.9997C88.2347 23.2822 88.4018 23.6667 88.4112 24.0708V31.5693C88.4018 31.9734 88.2347 32.3579 87.9455 32.6404C87.6563 32.9229 87.2681 33.0811 86.8638 33.0811C86.4596 33.0811 86.0713 32.9229 85.7822 32.6404C85.493 32.3579 85.3258 31.9734 85.3164 31.5693V24.0708ZM93.8164 28.3308C93.8258 27.9267 93.9929 27.5422 94.2821 27.2597C94.5713 26.9772 94.9595 26.819 95.3638 26.819C95.7681 26.819 96.1563 26.9772 96.4455 27.2597C96.7346 27.5422 96.9018 27.9267 96.9112 28.3308V31.5734C96.9018 31.9776 96.7346 32.3621 96.4455 32.6446C96.1563 32.9271 95.7681 33.0853 95.3638 33.0853C94.9595 33.0853 94.5713 32.9271 94.2821 32.6446C93.9929 32.3621 93.8258 31.9776 93.8164 31.5734" fill="#7C90AA"/>
<path d="M79.9108 18.248C79.9108 17.8375 79.7477 17.4438 79.4575 17.1535C79.1672 16.8633 78.7735 16.7002 78.363 16.7002C77.9525 16.7002 77.5588 16.8633 77.2685 17.1535C76.9783 17.4438 76.8152 17.8375 76.8152 18.248V34.6507C76.8152 35.0612 76.9783 35.4549 77.2685 35.7451C77.5588 36.0354 77.9525 36.1985 78.363 36.1985C78.7735 36.1985 79.1672 36.0354 79.4575 35.7451C79.7477 35.4549 79.9108 35.0612 79.9108 34.6507V18.248ZM71.41 24.0708C71.4006 23.6667 71.2335 23.2822 70.9443 22.9997C70.6551 22.7172 70.2669 22.559 69.8626 22.559C69.4584 22.559 69.0701 22.7172 68.781 22.9997C68.4918 23.2822 68.3246 23.6667 68.3152 24.0708V31.5693C68.3246 31.9734 68.4918 32.3579 68.781 32.6404C69.0701 32.9229 69.4584 33.0811 69.8626 33.0811C70.2669 33.0811 70.6551 32.9229 70.9443 32.6404C71.2335 32.3579 71.4006 31.9734 71.41 31.5693V24.0708ZM62.9101 28.3308C62.9007 27.9267 62.7335 27.5422 62.4443 27.2597C62.1552 26.9772 61.767 26.819 61.3627 26.819C60.9584 26.819 60.5702 26.9772 60.281 27.2597C59.9918 27.5422 59.8247 27.9267 59.8153 28.3308V31.5734C59.8247 31.9776 59.9918 32.3621 60.281 32.6446C60.5702 32.9271 60.9584 33.0853 61.3627 33.0853C61.767 33.0853 62.1552 32.9271 62.4443 32.6446C62.7335 32.3621 62.9007 31.9776 62.9101 31.5734" fill="#7C90AA"/>
</g>
<defs>
<clipPath id="clip0_748_132658">
<rect width="121.118" height="71" fill="white" transform="translate(0.76474)"/>
</clipPath>
</defs>
</svg>
