<svg width="122" height="71" viewBox="0 0 122 71" fill="none" xmlns="http://www.w3.org/2000/svg">
<g clip-path="url(#clip0_748_132628)">
<path d="M25.1502 29.5271H30.2062L29.4235 32.525C29.3166 32.9244 29.0819 33.2779 28.7553 33.5315C28.4293 33.7844 28.0268 33.9185 27.6143 33.9116H25.2629C24.7502 33.9035 24.2498 34.0689 23.8429 34.381C23.4268 34.7027 23.1249 35.1495 22.9817 35.6556C22.8781 36.0276 22.8667 36.4192 22.9483 36.7967C23.0239 37.1411 23.1726 37.4652 23.3843 37.7472C23.5976 38.027 23.8734 38.253 24.1896 38.4071C24.5229 38.5729 24.8906 38.6576 25.2629 38.6544H26.6946C26.8224 38.6522 26.9489 38.6805 27.0636 38.7369C27.1783 38.7932 27.278 38.876 27.3545 38.9784C27.4373 39.0779 27.494 39.1964 27.5194 39.3233C27.5448 39.4503 27.5381 39.5815 27.4998 39.7052L26.6052 43.0163H25.0391C24.0083 43.0267 22.9906 42.785 22.0746 42.3121C21.1965 41.8629 20.4287 41.2251 19.826 40.4444C19.2126 39.644 18.7908 38.7136 18.593 37.7248C18.3952 36.736 18.4267 35.7149 18.685 34.7402L18.7744 34.406C19.1529 33.0045 19.9821 31.7664 21.1341 30.8828C21.7 30.4528 22.3307 30.1156 23.0026 29.8838C23.6932 29.6443 24.4192 29.5232 25.1502 29.5254" fill="#7C90AA"/>
<path d="M27.7011 43.0161L32.1081 26.5065C32.2149 26.107 32.4496 25.7535 32.7764 25.5C33.1024 25.2471 33.5049 25.1131 33.9174 25.1199H38.595C39.6259 25.1097 40.6436 25.3518 41.5595 25.8249C42.438 26.2732 43.2058 26.9112 43.8074 27.6928C44.409 28.4743 44.8292 29.3799 45.0376 30.3439C45.2609 31.3535 45.2302 32.4028 44.9483 33.3977L44.8589 33.7318C44.6703 34.4359 44.3681 35.1046 43.9643 35.7115C43.367 36.612 42.5558 37.3505 41.6031 37.8607C40.6505 38.3709 39.5863 38.6369 38.5056 38.635H34.457L35.2622 35.6146C35.3733 35.2233 35.6077 34.8782 35.9304 34.6306C36.2565 34.3778 36.659 34.2437 37.0715 34.2505H38.3687C38.8913 34.2512 39.3993 34.0779 39.8125 33.7578C40.2257 33.4378 40.5206 32.9893 40.6507 32.4831C40.7543 32.1265 40.7658 31.7494 40.6841 31.3872C40.6081 31.0429 40.4595 30.7188 40.2481 30.4366C40.0326 30.1568 39.7576 29.9285 39.4429 29.7684C39.1112 29.5961 38.7424 29.5078 38.3687 29.5111H35.8628L32.5968 41.6579C32.4854 42.0491 32.2511 42.3941 31.9286 42.6419C31.6099 42.8923 31.2153 43.0264 30.8101 43.022L27.7011 43.0161Z" fill="#7C90AA"/>
<path d="M55.5954 34.202L55.6622 33.9556C55.6785 33.9045 55.6818 33.8501 55.6721 33.7974C55.6623 33.7447 55.6397 33.6951 55.6063 33.6532C55.5723 33.6125 55.5294 33.5802 55.4808 33.5589C55.4323 33.5376 55.3794 33.5278 55.3265 33.5304H48.0594C47.7637 33.5347 47.4715 33.4655 47.2091 33.3291C46.964 33.2024 46.7501 33.0229 46.5826 32.8037C46.416 32.5815 46.3018 32.3245 46.2485 32.0519C46.1884 31.7632 46.1959 31.4645 46.2702 31.1791L46.7179 29.4792H56.561C57.1451 29.4725 57.7217 29.6108 58.2391 29.8819C58.7309 30.1377 59.1619 30.4964 59.5029 30.9335C59.8412 31.372 60.0779 31.8801 60.1962 32.4211C60.3226 32.9937 60.3112 33.588 60.1628 34.1552L58.3953 40.7323C58.2235 41.3828 57.8401 41.9576 57.3054 42.3659C56.7707 42.7743 56.1153 42.993 55.4426 42.9876L48.1755 42.9651C47.5785 42.9704 46.9884 42.8367 46.452 42.5746C45.9156 42.3125 45.4476 41.9291 45.0849 41.4549C44.7372 40.9899 44.4931 40.4559 44.3691 39.8887C44.2352 39.2939 44.2507 38.6752 44.4142 38.0878L44.5035 37.7537C44.6073 37.3376 44.7853 36.9438 45.0289 36.5909C45.2663 36.2416 45.5569 35.9316 45.8901 35.6721C46.2213 35.4169 46.5913 35.2167 46.986 35.0791C47.396 34.936 47.8273 34.864 48.2615 34.8661H54.3684L53.9207 36.5442C53.8094 36.9354 53.5751 37.2805 53.2524 37.5281C52.9338 37.7785 52.5392 37.9126 52.134 37.9082H49.405C49.291 37.9015 49.1784 37.9364 49.088 38.0062C48.9976 38.076 48.9354 38.1762 48.9131 38.2883C48.8898 38.3625 48.8858 38.4415 48.9014 38.5178C48.9171 38.5941 48.9518 38.6651 49.0024 38.7243C49.0503 38.7849 49.1116 38.8336 49.1814 38.8667C49.2513 38.8997 49.3278 38.9162 49.405 38.9147H53.8121C53.9648 38.9182 54.1143 38.8709 54.2372 38.7802C54.3546 38.6936 54.4347 38.5654 54.4611 38.4219L54.5062 38.2431L55.5954 34.202Z" fill="#7C90AA"/>
<path d="M68.6151 29.5268C69.6531 29.5149 70.6782 29.7569 71.6013 30.2318C72.4791 30.6813 73.2469 31.319 73.8499 32.0995C74.4503 32.8844 74.8668 33.7942 75.0686 34.7616C75.2844 35.7761 75.25 36.828 74.9684 37.8263L73.8499 42.032C73.7813 42.3209 73.6104 42.5752 73.3688 42.7478C73.1327 42.9233 72.846 43.0174 72.5519 43.016H70.1362C70.0072 43.0187 69.8794 42.9909 69.7632 42.935C69.6469 42.8791 69.5455 42.7966 69.467 42.6942C69.3886 42.5918 69.3354 42.4723 69.3118 42.3455C69.2881 42.2187 69.2947 42.0881 69.331 41.9643L70.6733 36.8866C70.777 36.53 70.7885 36.1529 70.7067 35.7907C70.6307 35.4464 70.4821 35.1223 70.2707 34.8401C70.0553 34.5603 69.7802 34.332 69.4654 34.1719C69.134 33.9997 68.7655 33.9114 68.3921 33.9146H65.8862L63.7144 42.0353C63.646 42.3243 63.4751 42.5787 63.2333 42.7512C62.9911 42.9283 62.6981 43.0224 62.398 43.0193H60.0041C59.8762 43.0216 59.7497 42.9934 59.6349 42.937C59.5202 42.8807 59.4205 42.7978 59.3442 42.6952C59.2613 42.5958 59.2047 42.4772 59.1793 42.3503C59.1539 42.2234 59.1606 42.0921 59.1988 41.9685L62.5099 29.531L68.6151 29.5268Z" fill="#7C90AA"/>
<path d="M81.7915 33.7888C81.6132 33.9297 81.4809 34.1204 81.4114 34.3367L80.4049 38.1398C80.3776 38.2396 80.3738 38.3444 80.3936 38.4459C80.4135 38.5475 80.4565 38.6431 80.5193 38.7254C80.582 38.8076 80.6629 38.8743 80.7556 38.9202C80.8483 38.9661 80.9504 38.9901 81.0539 38.9901H90.3148L89.599 41.6522C89.4875 42.0434 89.2532 42.3884 88.9307 42.6362C88.612 42.8865 88.2175 43.0206 87.8123 43.0162H79.3758C78.793 43.0231 78.2172 42.8887 77.6977 42.6245C77.2026 42.3736 76.7705 42.0141 76.4339 41.5729C76.0966 41.1297 75.86 40.6183 75.7406 40.0743C75.614 39.5083 75.6333 38.9194 75.7965 38.3628L77.1614 33.2851C77.3062 32.743 77.5405 32.2289 77.8547 31.764C78.4644 30.8515 79.3564 30.1641 80.394 29.8069C80.922 29.6207 81.478 29.5261 82.0379 29.5271H88.0111C88.5948 29.5205 89.1711 29.6588 89.6883 29.9297C90.1801 30.1857 90.6111 30.5443 90.9521 30.9813C91.2913 31.422 91.5248 31.9347 91.6346 32.4798C91.7536 33.0497 91.7381 33.6394 91.5895 34.2022L91.1868 35.7233C91.0224 36.3729 90.6388 36.9458 90.101 37.3454C89.5714 37.7505 88.9216 37.9669 88.255 37.9602H81.4991L81.9468 36.3047C82.0445 35.9122 82.2735 35.565 82.5958 35.3207C82.9218 35.0678 83.3243 34.9338 83.7369 34.9406H86.4641C86.5781 34.9471 86.6906 34.9122 86.781 34.8424C86.8714 34.7726 86.9335 34.6725 86.9561 34.5606L87.0455 34.2264C87.0658 34.1505 87.0686 34.071 87.0535 33.9939C87.0384 33.9167 87.0059 33.8441 86.9584 33.7814C86.9109 33.7188 86.8498 33.6679 86.7796 33.6325C86.7094 33.5971 86.6321 33.5783 86.5535 33.5774H82.3929C82.173 33.5764 81.9596 33.6516 81.789 33.7904" fill="#7C90AA"/>
<path d="M90.2922 43.0162L94.7886 26.1265C94.8586 25.8353 95.029 25.5781 95.2697 25.3998C95.5091 25.216 95.8031 25.1175 96.105 25.12H98.499C98.6303 25.1161 98.7606 25.1434 98.8792 25.1997C98.9979 25.2561 99.1015 25.3398 99.1814 25.4441C99.2643 25.5435 99.3209 25.6621 99.3463 25.789C99.3717 25.9159 99.3649 26.0472 99.3267 26.1708L95.9714 38.6309C95.8148 39.2699 95.5458 39.876 95.177 40.4209C94.822 40.9468 94.3839 41.4114 93.8798 41.7966C93.3731 42.1804 92.8094 42.4823 92.2092 42.6912C91.592 42.9083 90.9422 43.018 90.288 43.0153" fill="#7C90AA"/>
<path d="M101.419 26.5901H101.639C101.734 26.5952 101.827 26.5655 101.902 26.5066C101.933 26.4805 101.959 26.4475 101.976 26.4102C101.993 26.3729 102.001 26.3321 102 26.2911C102.004 26.2503 101.998 26.2091 101.983 26.171C101.968 26.133 101.943 26.0991 101.912 26.0723C101.829 26.0216 101.732 25.9985 101.635 26.0063H101.419V26.5901ZM102.303 26.2827C102.306 26.3851 102.277 26.4858 102.22 26.5709C102.159 26.6564 102.074 26.7214 101.976 26.7572L102.461 27.5624H102.119L101.697 26.8407H101.422V27.5624H101.121V25.7457H101.653C101.828 25.7314 102.004 25.7783 102.149 25.8785C102.204 25.9296 102.246 25.9924 102.274 26.0622C102.301 26.1321 102.312 26.2071 102.307 26.2819L102.303 26.2827ZM100.365 26.6528C100.365 26.8844 100.426 27.112 100.541 27.3127C100.657 27.5134 100.824 27.6801 101.024 27.7959C101.225 27.9117 101.452 27.9725 101.684 27.9723C101.916 27.9721 102.143 27.9108 102.343 27.7946C102.543 27.6792 102.709 27.5136 102.825 27.3143C102.942 27.1138 103.003 26.886 103.003 26.654C103.003 26.4221 102.942 26.1943 102.825 25.9937C102.71 25.7941 102.544 25.6281 102.345 25.5118C102.145 25.3952 101.917 25.3338 101.685 25.3338C101.453 25.3338 101.225 25.3952 101.025 25.5118C100.825 25.6273 100.659 25.7928 100.543 25.9921C100.424 26.1922 100.362 26.4209 100.364 26.6536L100.365 26.6528ZM100.15 26.6536C100.149 26.3853 100.219 26.1216 100.354 25.8893C100.486 25.6546 100.68 25.46 100.914 25.3263C101.264 25.1402 101.672 25.0966 102.053 25.2047C102.435 25.3128 102.759 25.5643 102.959 25.9064C103.159 26.2485 103.219 26.6547 103.126 27.0399C103.033 27.425 102.794 27.7593 102.46 27.9725C102.285 28.0761 102.091 28.1437 101.889 28.1714C101.687 28.1992 101.482 28.1865 101.285 28.1341C101.088 28.0817 100.904 27.9906 100.742 27.8662C100.581 27.7419 100.446 27.5866 100.345 27.4096C100.214 27.179 100.146 26.9181 100.147 26.6528" fill="#7C90AA"/>
<path fill-rule="evenodd" clip-rule="evenodd" d="M28.0731 41.8996C28.226 41.345 29.1999 37.6981 30.2374 33.7973C31.2748 29.8965 32.197 26.5143 32.2855 26.2846C32.4311 25.9887 32.6464 25.7324 32.9128 25.5379C33.3371 25.2347 33.5861 25.2038 35.7252 25.1528C39.7931 25.0609 41.3142 25.4477 42.9923 27.0005C43.8549 27.7713 44.4877 28.7656 44.8207 29.8736C45.1537 30.9815 45.1739 32.1599 44.8792 33.2786C44.6094 34.5351 43.9829 35.6871 43.0748 36.5966C42.1668 37.5061 41.0158 38.1345 39.7597 38.4064C38.7626 38.5332 37.7577 38.589 36.7526 38.5735H34.5408L34.971 36.9914C35.6108 34.6367 35.7904 34.473 37.8786 34.3335C39.3195 34.2375 39.9669 33.9159 40.4455 33.0647C40.604 32.7935 40.7074 32.4937 40.7498 32.1825C40.7922 31.8712 40.7728 31.5547 40.6926 31.251C40.6125 30.9472 40.4732 30.6623 40.2827 30.4126C40.0922 30.1628 39.8543 29.953 39.5826 29.7954C39.114 29.4796 38.9353 29.4546 37.4234 29.493L35.7754 29.5348L34.1231 35.6625C33.2143 39.0312 32.3866 41.9381 32.2855 42.1218C31.9405 42.7433 31.3608 42.9078 29.5115 42.9078H27.7958L28.0731 41.8996Z" fill="#7C90AA"/>
<path fill-rule="evenodd" clip-rule="evenodd" d="M47.1966 42.7706C46.1267 42.4199 45.2364 41.6648 44.7158 40.6664C44.3152 39.5775 44.3387 38.3776 44.7818 37.3052C45.1302 36.4283 45.8103 35.7242 46.6746 35.3456C47.3913 35.0065 47.5583 34.9923 50.8318 34.9906H54.2423L54.1404 35.4759C54.0141 36.2512 53.6357 36.9632 53.0637 37.5015C52.6803 37.7747 52.3713 37.8248 50.8577 37.8615C49.3726 37.8974 49.071 37.9451 48.9366 38.1656C48.8783 38.2403 48.8467 38.3323 48.8467 38.427C48.8467 38.5218 48.8783 38.6138 48.9366 38.6885C49.0802 38.9157 49.4018 38.9549 51.419 38.9908C52.3134 39.0338 53.2098 39.0014 54.0987 38.894C54.4178 38.7728 54.5364 38.4763 55.101 36.3455C55.3652 35.4874 55.5519 34.6074 55.659 33.716C55.588 33.5305 54.9615 33.4963 51.6337 33.4963C47.778 33.4963 47.6811 33.4888 47.1866 33.1555C46.2862 32.5482 46.1375 31.7898 46.6019 30.1718L46.7631 29.6113H52.0614C57.1475 29.6113 57.3864 29.6239 58.0329 29.9279C58.6572 30.2299 59.188 30.6955 59.5686 31.2752C59.9493 31.8548 60.1656 32.5269 60.1946 33.2198C59.6233 36.0188 58.8819 38.7804 57.9744 41.4892C57.7289 41.838 57.4245 42.1413 57.0748 42.3855L56.4342 42.8357L52.0021 42.8633C49.5647 42.8783 47.4021 42.8382 47.1958 42.7739L47.1966 42.7706Z" fill="#7C90AA"/>
<path fill-rule="evenodd" clip-rule="evenodd" d="M59.4786 42.7282C59.3596 42.566 59.2982 42.3688 59.3041 42.1677C59.3041 41.9581 60.0366 39.0638 60.927 35.736L62.545 29.6859L65.9497 29.6458C69.7845 29.6007 70.5947 29.7219 71.9771 30.5505C72.9777 31.1685 73.7949 32.0427 74.3441 33.0827C74.8934 34.1226 75.1547 35.2904 75.1011 36.4652C74.9884 37.8693 73.7822 42.1828 73.3946 42.5703C73.0864 42.8786 72.9194 42.9045 71.4375 42.9045C69.706 42.9045 69.4587 42.8143 69.4587 42.1836C69.4587 41.9848 69.7686 40.6383 70.147 39.1924C70.8988 36.3115 70.9339 35.6491 70.3633 34.8489C69.7928 34.0487 69.2775 33.8749 67.4524 33.8708H65.8193L64.9598 37.0825C64.4871 38.8491 63.9842 40.7294 63.8414 41.2589C63.729 41.7299 63.5249 42.1741 63.2408 42.5662C62.9267 42.8802 62.768 42.9078 61.2795 42.9078C60.6735 42.9713 60.061 42.9101 59.4795 42.7282H59.4786Z" fill="#7C90AA"/>
<path fill-rule="evenodd" clip-rule="evenodd" d="M78.1421 42.7029C77.4915 42.4218 76.9263 41.9743 76.5035 41.4056C76.0806 40.8368 75.8149 40.1668 75.7331 39.4628C76.1763 37.105 76.7953 34.7836 77.5849 32.5182C78.0298 31.4751 78.8519 30.6384 79.887 30.1752L80.8793 29.6865H84.9163C89.3868 29.6865 89.5446 29.7149 90.5378 30.7106C91.5928 31.7681 91.815 33.1329 91.2578 35.1418C91.1836 35.6378 90.9979 36.1105 90.7146 36.5243C90.4314 36.9381 90.0579 37.2822 89.6223 37.5308C89.0869 37.8039 88.7386 37.8281 85.3732 37.8281C82.438 37.8281 81.7071 37.7889 81.7071 37.631C81.7958 36.8503 82.1092 36.1121 82.6092 35.506C83.0611 35.0725 83.1104 35.0625 84.8912 35.0132C85.5654 35.0277 86.2386 34.959 86.8959 34.8085C87.1691 34.5822 87.1331 33.6959 86.8466 33.5857C86.0081 33.5046 85.1654 33.4741 84.3232 33.4946C82.3636 33.4946 81.9919 33.5322 81.7246 33.7561C81.3015 34.4349 81.0176 35.191 80.8893 35.9805C80.3213 38.0979 80.2637 38.5657 80.5418 38.843C80.6738 38.975 81.9785 39.0226 85.4818 39.0226C89.9456 39.0226 90.2371 39.0385 90.1644 39.2841C90.121 39.4277 89.9548 40.0258 89.7952 40.6122C89.4419 41.9052 89.294 42.1992 88.7845 42.5968C88.4028 42.8975 88.2332 42.9067 83.5172 42.8959C81.7232 42.9724 79.9259 42.9078 78.1421 42.7029Z" fill="#7C90AA"/>
<path fill-rule="evenodd" clip-rule="evenodd" d="M90.4392 42.7421C90.4793 42.6276 91.4917 38.8454 92.6879 34.3365C93.884 29.8276 94.934 26.0069 95.02 25.8457C95.2656 25.3863 96.085 25.1299 97.307 25.1299C98.4589 25.1299 99.1105 25.3136 99.25 25.677C99.3569 25.9568 95.8194 39.0484 95.431 39.8102C94.8318 40.8762 93.9309 41.7413 92.8416 42.2969C91.7632 42.8273 90.314 43.0962 90.4392 42.7421Z" fill="#7C90AA"/>
<path fill-rule="evenodd" clip-rule="evenodd" d="M25.5354 31.703V29.6147H27.7765C29.4697 29.6147 30.0176 29.6607 30.0168 29.8019C30.0168 29.9046 29.8497 30.6271 29.6418 31.4081C29.3302 32.5867 29.179 32.9116 28.748 33.3126C28.2418 33.7862 28.1959 33.7979 26.8828 33.7979H25.5354V31.7097V31.703Z" fill="#7C90AA"/>
<path fill-rule="evenodd" clip-rule="evenodd" d="M101.12 26.6543V25.748H101.413C101.585 25.748 101.724 25.748 101.752 25.748C101.866 25.7517 101.978 25.7802 102.08 25.8316C102.135 25.8633 102.182 25.907 102.218 25.9595C102.254 26.012 102.278 26.0719 102.288 26.1348C102.299 26.1899 102.303 26.2459 102.301 26.3018C102.299 26.3941 102.27 26.4838 102.218 26.5604C102.167 26.6371 102.095 26.6974 102.01 26.7345C101.997 26.7395 101.984 26.7465 101.973 26.7554L102.215 27.1564L102.455 27.554H102.12C102.12 27.554 102.023 27.3911 101.907 27.1939L101.698 26.8356H101.419V27.5556H101.121V26.6543H101.12ZM101.675 26.59C101.755 26.5883 101.832 26.5607 101.895 26.5115C101.932 26.483 101.96 26.4456 101.979 26.403C101.997 26.3604 102.004 26.3138 102 26.2676C102.004 26.2099 101.986 26.1529 101.95 26.1076C101.914 26.0623 101.863 26.0318 101.806 26.022C101.726 26.0048 101.644 25.9983 101.562 26.0028H101.416V26.595H101.523C101.582 26.595 101.65 26.595 101.675 26.595V26.59Z" fill="#7C90AA"/>
<path fill-rule="evenodd" clip-rule="evenodd" d="M101.599 28.1806C101.266 28.1642 100.948 28.0385 100.694 27.8231C100.414 27.5869 100.228 27.2583 100.169 26.8968C100.151 26.7673 100.147 26.6362 100.158 26.5059C100.178 26.297 100.24 26.0945 100.342 25.9109C100.443 25.7273 100.581 25.5665 100.747 25.4384L100.766 25.4242H101.192L101.148 25.4434C100.882 25.5625 100.663 25.7648 100.522 26.0197C100.436 26.1742 100.383 26.3449 100.366 26.5209C100.361 26.6043 100.361 26.688 100.366 26.7715C100.381 26.9301 100.426 27.0845 100.497 27.2267C100.585 27.4056 100.713 27.5622 100.87 27.6848C101.027 27.8074 101.21 27.8928 101.405 27.9346C101.599 27.9764 101.801 27.9735 101.995 27.9262C102.188 27.8788 102.369 27.7881 102.522 27.6611C102.585 27.6069 102.644 27.5483 102.698 27.4857C102.895 27.2503 103.003 26.9525 103.001 26.6454C103.003 26.4424 102.957 26.242 102.866 26.0606C102.745 25.8124 102.549 25.608 102.307 25.4759C102.273 25.4576 102.191 25.4183 102.173 25.4116C102.173 25.4116 102.264 25.4116 102.382 25.4116H102.596L102.612 25.4242C102.693 25.4856 102.766 25.5547 102.833 25.6305C102.949 25.7664 103.043 25.9205 103.109 26.0865C103.158 26.2136 103.19 26.3464 103.204 26.4816C103.212 26.587 103.212 26.6928 103.204 26.7982C103.172 27.104 103.049 27.3934 102.852 27.6293C102.798 27.6915 102.739 27.7498 102.677 27.8039C102.378 28.0607 101.992 28.1915 101.598 28.1689L101.599 28.1806Z" fill="#7C90AA"/>
</g>
<defs>
<clipPath id="clip0_748_132628">
<rect width="121.118" height="71" fill="white" transform="translate(0.647095)"/>
</clipPath>
</defs>
</svg>
